<svg width="242" height="96" viewBox="0 0 242 96" fill="none" xmlns="http://www.w3.org/2000/svg">
<path d="M1.472 36V2.4H5.024V36H1.472ZM157.382 36.288C155.206 36.288 153.27 35.936 151.574 35.232C149.878 34.496 148.534 33.488 147.542 32.208C146.582 30.928 146.102 29.44 146.102 27.744C146.102 26.304 146.422 24.992 147.062 23.808C147.702 22.592 148.726 21.408 150.134 20.256C151.574 19.072 153.478 17.84 155.846 16.56C157.862 15.44 159.43 14.48 160.55 13.68C161.702 12.848 162.518 12.064 162.998 11.328C163.478 10.56 163.718 9.744 163.718 8.88C163.718 7.632 163.286 6.624 162.422 5.856C161.59 5.088 160.39 4.704 158.822 4.704C157.126 4.704 155.814 5.136 154.886 6C153.958 6.832 153.494 7.92 153.494 9.264C153.494 9.936 153.59 10.576 153.782 11.184C154.006 11.792 154.406 12.464 154.982 13.2C155.59 13.936 156.422 14.864 157.478 15.984L175.238 34.272L173.27 36.528L154.742 17.472C153.622 16.288 152.726 15.264 152.054 14.4C151.414 13.504 150.966 12.656 150.71 11.856C150.454 11.056 150.326 10.208 150.326 9.312C150.326 7.872 150.662 6.624 151.334 5.568C152.038 4.48 153.03 3.648 154.31 3.072C155.59 2.464 157.094 2.16 158.822 2.16C160.39 2.16 161.75 2.432 162.902 2.976C164.086 3.488 164.998 4.24 165.638 5.232C166.31 6.224 166.646 7.424 166.646 8.832C166.646 10.048 166.342 11.184 165.734 12.24C165.158 13.296 164.198 14.336 162.854 15.36C161.51 16.352 159.686 17.472 157.382 18.72C155.366 19.84 153.766 20.864 152.582 21.792C151.43 22.72 150.614 23.632 150.134 24.528C149.654 25.392 149.414 26.352 149.414 27.408C149.414 28.624 149.75 29.696 150.422 30.624C151.126 31.52 152.086 32.224 153.302 32.736C154.55 33.216 155.974 33.456 157.574 33.456C159.814 33.456 161.814 32.992 163.574 32.064C165.334 31.136 166.806 29.728 167.99 27.84C169.206 25.952 170.086 23.584 170.63 20.736L173.366 21.6C172.758 24.8 171.718 27.488 170.246 29.664C168.774 31.84 166.95 33.488 164.774 34.608C162.598 35.728 160.134 36.288 157.382 36.288ZM143.176 95.24C141.096 95.24 139.128 94.952 137.272 94.376C135.416 93.768 133.96 93.016 132.904 92.12L134.44 89.432C135.464 90.2 136.776 90.872 138.376 91.448C139.976 91.992 141.656 92.264 143.416 92.264C145.816 92.264 147.544 91.896 148.6 91.16C149.656 90.392 150.184 89.384 150.184 88.136C150.184 87.208 149.88 86.488 149.272 85.976C148.696 85.432 147.928 85.032 146.968 84.776C146.008 84.488 144.936 84.248 143.752 84.056C142.568 83.864 141.384 83.64 140.2 83.384C139.048 83.128 137.992 82.76 137.032 82.28C136.072 81.768 135.288 81.08 134.68 80.216C134.104 79.352 133.816 78.2 133.816 76.76C133.816 75.384 134.2 74.152 134.968 73.064C135.736 71.976 136.856 71.128 138.328 70.52C139.832 69.88 141.656 69.56 143.8 69.56C145.432 69.56 147.064 69.784 148.696 70.232C150.328 70.648 151.672 71.208 152.728 71.912L151.24 74.648C150.12 73.88 148.92 73.336 147.64 73.016C146.36 72.664 145.08 72.488 143.8 72.488C141.528 72.488 139.848 72.888 138.76 73.688C137.704 74.456 137.176 75.448 137.176 76.664C137.176 77.624 137.464 78.376 138.04 78.92C138.648 79.464 139.432 79.896 140.392 80.216C141.384 80.504 142.456 80.744 143.608 80.936C144.792 81.128 145.96 81.368 147.112 81.656C148.296 81.912 149.368 82.28 150.328 82.76C151.32 83.208 152.104 83.864 152.68 84.728C153.288 85.56 153.592 86.664 153.592 88.04C153.592 89.512 153.176 90.792 152.344 91.88C151.544 92.936 150.36 93.768 148.792 94.376C147.256 94.952 145.384 95.24 143.176 95.24ZM167.814 95.24C165.446 95.24 163.622 94.6 162.342 93.32C161.062 92.04 160.422 90.232 160.422 87.896V64.232H163.83V87.704C163.83 89.176 164.198 90.312 164.934 91.112C165.702 91.912 166.79 92.312 168.198 92.312C169.702 92.312 170.95 91.88 171.942 91.016L173.142 93.464C172.47 94.072 171.654 94.52 170.694 94.808C169.766 95.096 168.806 95.24 167.814 95.24ZM155.91 72.632V69.8H171.51V72.632H155.91ZM189.762 95.24C187.618 95.24 185.746 94.84 184.146 94.04C182.546 93.24 181.298 92.04 180.402 90.44C179.538 88.84 179.106 86.84 179.106 84.44V69.8H182.514V84.056C182.514 86.744 183.17 88.776 184.482 90.152C185.826 91.496 187.698 92.168 190.098 92.168C191.858 92.168 193.378 91.816 194.658 91.112C195.97 90.376 196.962 89.32 197.634 87.944C198.338 86.568 198.69 84.92 198.69 83V69.8H202.098V95H198.834V88.088L199.362 89.336C198.562 91.192 197.314 92.648 195.618 93.704C193.954 94.728 192.002 95.24 189.762 95.24ZM212.172 95V66.632C212.172 64.392 212.828 62.584 214.14 61.208C215.452 59.832 217.34 59.144 219.804 59.144C220.764 59.144 221.692 59.272 222.588 59.528C223.484 59.784 224.236 60.184 224.844 60.728L223.692 63.272C223.212 62.856 222.652 62.552 222.012 62.36C221.372 62.136 220.684 62.024 219.948 62.024C218.508 62.024 217.404 62.424 216.636 63.224C215.868 64.024 215.484 65.208 215.484 66.776V70.616L215.58 72.2V95H212.172ZM207.66 72.632V69.8H223.26V72.632H207.66ZM228.531 95V66.632C228.531 64.392 229.187 62.584 230.499 61.208C231.811 59.832 233.699 59.144 236.163 59.144C237.123 59.144 238.051 59.272 238.947 59.528C239.843 59.784 240.595 60.184 241.203 60.728L240.051 63.272C239.571 62.856 239.011 62.552 238.371 62.36C237.731 62.136 237.043 62.024 236.307 62.024C234.867 62.024 233.763 62.424 232.995 63.224C232.227 64.024 231.843 65.208 231.843 66.776V70.616L231.939 72.2V95H228.531ZM224.019 72.632V69.8H239.619V72.632H224.019Z" fill="white"/>
<path d="M38.2629 36.24C35.7669 36.24 33.5269 35.696 31.5429 34.608C29.5909 33.488 28.0549 31.968 26.9349 30.048C25.8149 28.096 25.2549 25.872 25.2549 23.376C25.2549 20.848 25.8149 18.624 26.9349 16.704C28.0549 14.784 29.5909 13.28 31.5429 12.192C33.5269 11.104 35.7669 10.56 38.2629 10.56C40.4069 10.56 42.3429 10.976 44.0709 11.808C45.7989 12.64 47.1589 13.888 48.1509 15.552L45.6069 17.28C44.7429 16 43.6709 15.056 42.3909 14.448C41.1109 13.84 39.7189 13.536 38.2149 13.536C36.4229 13.536 34.8069 13.952 33.3669 14.784C31.9269 15.584 30.7909 16.72 29.9589 18.192C29.1269 19.664 28.7109 21.392 28.7109 23.376C28.7109 25.36 29.1269 27.088 29.9589 28.56C30.7909 30.032 31.9269 31.184 33.3669 32.016C34.8069 32.816 36.4229 33.216 38.2149 33.216C39.7189 33.216 41.1109 32.912 42.3909 32.304C43.6709 31.696 44.7429 30.768 45.6069 29.52L48.1509 31.248C47.1589 32.88 45.7989 34.128 44.0709 34.992C42.3429 35.824 40.4069 36.24 38.2629 36.24ZM54.8458 36V10.8H58.1098V17.664L57.7738 16.464C58.4778 14.544 59.6618 13.088 61.3258 12.096C62.9898 11.072 65.0538 10.56 67.5178 10.56V13.872C67.3898 13.872 67.2618 13.872 67.1338 13.872C67.0058 13.84 66.8778 13.824 66.7498 13.824C64.0938 13.824 62.0138 14.64 60.5098 16.272C59.0058 17.872 58.2538 20.16 58.2538 23.136V36H54.8458ZM87.6534 36V30.432L87.5094 29.52V20.208C87.5094 18.064 86.9014 16.416 85.6854 15.264C84.5014 14.112 82.7254 13.536 80.3574 13.536C78.7254 13.536 77.1734 13.808 75.7014 14.352C74.2294 14.896 72.9814 15.616 71.9574 16.512L70.4214 13.968C71.7014 12.88 73.2374 12.048 75.0294 11.472C76.8214 10.864 78.7094 10.56 80.6934 10.56C83.9574 10.56 86.4694 11.376 88.2294 13.008C90.0214 14.608 90.9174 17.056 90.9174 20.352V36H87.6534ZM78.9654 36.24C77.0774 36.24 75.4294 35.936 74.0214 35.328C72.6454 34.688 71.5894 33.824 70.8534 32.736C70.1174 31.616 69.7494 30.336 69.7494 28.896C69.7494 27.584 70.0534 26.4 70.6614 25.344C71.3014 24.256 72.3254 23.392 73.7334 22.752C75.1734 22.08 77.0934 21.744 79.4934 21.744H88.1814V24.288H79.5894C77.1574 24.288 75.4614 24.72 74.5014 25.584C73.5734 26.448 73.1094 27.52 73.1094 28.8C73.1094 30.24 73.6694 31.392 74.7894 32.256C75.9094 33.12 77.4774 33.552 79.4934 33.552C81.4134 33.552 83.0614 33.12 84.4374 32.256C85.8454 31.36 86.8694 30.08 87.5094 28.416L88.2774 30.768C87.6374 32.432 86.5174 33.76 84.9174 34.752C83.3494 35.744 81.3654 36.24 78.9654 36.24ZM100.75 36V7.632C100.75 5.392 101.406 3.584 102.718 2.208C104.03 0.831998 105.918 0.143998 108.382 0.143998C109.342 0.143998 110.27 0.271998 111.166 0.527999C112.062 0.783999 112.814 1.184 113.422 1.728L112.27 4.272C111.79 3.856 111.23 3.552 110.59 3.36C109.95 3.136 109.262 3.024 108.526 3.024C107.086 3.024 105.982 3.424 105.214 4.224C104.446 5.024 104.062 6.208 104.062 7.776V11.616L104.158 13.2V36H100.75ZM96.2379 13.632V10.8H111.838V13.632H96.2379ZM124.408 36.24C122.04 36.24 120.216 35.6 118.936 34.32C117.656 33.04 117.016 31.232 117.016 28.896V5.232H120.424V28.704C120.424 30.176 120.792 31.312 121.528 32.112C122.296 32.912 123.384 33.312 124.792 33.312C126.296 33.312 127.544 32.88 128.536 32.016L129.736 34.464C129.064 35.072 128.248 35.52 127.288 35.808C126.36 36.096 125.4 36.24 124.408 36.24ZM112.504 13.632V10.8H128.104V13.632H112.504ZM13.76 95.24C11.552 95.24 9.568 94.744 7.808 93.752C6.048 92.728 4.656 91.256 3.632 89.336C2.608 87.416 2.096 85.096 2.096 82.376C2.096 79.624 2.608 77.304 3.632 75.416C4.688 73.496 6.096 72.04 7.856 71.048C9.616 70.056 11.584 69.56 13.76 69.56C16.16 69.56 18.304 70.104 20.192 71.192C22.112 72.248 23.616 73.736 24.704 75.656C25.792 77.576 26.336 79.816 26.336 82.376C26.336 84.904 25.792 87.144 24.704 89.096C23.616 91.016 22.112 92.52 20.192 93.608C18.304 94.696 16.16 95.24 13.76 95.24ZM0.752 95V59.384H4.16V77.24L3.68 82.328L4.016 87.416V95H0.752ZM13.52 92.216C15.312 92.216 16.912 91.816 18.32 91.016C19.728 90.184 20.848 89.032 21.68 87.56C22.512 86.056 22.928 84.328 22.928 82.376C22.928 80.392 22.512 78.664 21.68 77.192C20.848 75.72 19.728 74.584 18.32 73.784C16.912 72.952 15.312 72.536 13.52 72.536C11.728 72.536 10.112 72.952 8.672 73.784C7.264 74.584 6.144 75.72 5.312 77.192C4.512 78.664 4.112 80.392 4.112 82.376C4.112 84.328 4.512 86.056 5.312 87.56C6.144 89.032 7.264 90.184 8.672 91.016C10.112 91.816 11.728 92.216 13.52 92.216ZM43.6993 95.24C41.5553 95.24 39.6833 94.84 38.0833 94.04C36.4833 93.24 35.2353 92.04 34.3393 90.44C33.4753 88.84 33.0433 86.84 33.0433 84.44V69.8H36.4513V84.056C36.4513 86.744 37.1073 88.776 38.4193 90.152C39.7633 91.496 41.6353 92.168 44.0353 92.168C45.7953 92.168 47.3153 91.816 48.5953 91.112C49.9073 90.376 50.8993 89.32 51.5713 87.944C52.2753 86.568 52.6273 84.92 52.6273 83V69.8H56.0353V95H52.7712V88.088L53.2993 89.336C52.4993 91.192 51.2513 92.648 49.5553 93.704C47.8913 94.728 45.9393 95.24 43.6993 95.24ZM65.5333 95V69.8H68.9413V95H65.5333ZM67.2613 64.232C66.5573 64.232 65.9653 63.992 65.4853 63.512C65.0053 63.032 64.7653 62.456 64.7653 61.784C64.7653 61.112 65.0053 60.552 65.4853 60.104C65.9653 59.624 66.5573 59.384 67.2613 59.384C67.9653 59.384 68.5573 59.608 69.0373 60.056C69.5173 60.504 69.7573 61.064 69.7573 61.736C69.7573 62.44 69.5173 63.032 69.0373 63.512C68.5893 63.992 67.9973 64.232 67.2613 64.232ZM78.4239 95V59.384H81.8319V95H78.4239ZM101.347 95.24C98.9465 95.24 96.7865 94.696 94.8665 93.608C92.9785 92.52 91.4905 91.016 90.4025 89.096C89.3145 87.144 88.7705 84.904 88.7705 82.376C88.7705 79.816 89.3145 77.576 90.4025 75.656C91.4905 73.736 92.9785 72.248 94.8665 71.192C96.7865 70.104 98.9465 69.56 101.347 69.56C103.555 69.56 105.523 70.056 107.251 71.048C109.011 72.04 110.403 73.496 111.427 75.416C112.483 77.304 113.01 79.624 113.01 82.376C113.01 85.096 112.499 87.416 111.475 89.336C110.451 91.256 109.059 92.728 107.299 93.752C105.571 94.744 103.587 95.24 101.347 95.24ZM101.587 92.216C103.379 92.216 104.979 91.816 106.387 91.016C107.827 90.184 108.947 89.032 109.747 87.56C110.579 86.056 110.995 84.328 110.995 82.376C110.995 80.392 110.579 78.664 109.747 77.192C108.947 75.72 107.827 74.584 106.387 73.784C104.979 72.952 103.379 72.536 101.587 72.536C99.8265 72.536 98.2425 72.952 96.8345 73.784C95.4265 74.584 94.3065 75.72 93.4745 77.192C92.6425 78.664 92.2265 80.392 92.2265 82.376C92.2265 84.328 92.6425 86.056 93.4745 87.56C94.3065 89.032 95.4265 90.184 96.8345 91.016C98.2425 91.816 99.8265 92.216 101.587 92.216ZM111.091 95V87.416L111.427 82.328L110.947 77.24V59.384H114.355V95H111.091Z" fill="#01BE53"/>
</svg>
