<svg width="116" height="83" viewBox="0 0 116 83" fill="none" xmlns="http://www.w3.org/2000/svg">
<path d="M4.04 6.856L0.56 5.464V4.936L4.04 3.544V4.04L0.768 5.328V5.072L4.04 6.36V6.856ZM7.53756 3.76C7.8789 3.76 8.17756 3.82667 8.43356 3.96C8.6949 4.088 8.89756 4.28533 9.04156 4.552C9.1909 4.81867 9.26556 5.15467 9.26556 5.56V8H8.69756V5.616C8.69756 5.17333 8.58556 4.84 8.36156 4.616C8.1429 4.38667 7.83356 4.272 7.43356 4.272C7.1349 4.272 6.87356 4.33333 6.64956 4.456C6.4309 4.57333 6.26023 4.74667 6.13756 4.976C6.02023 5.2 5.96156 5.472 5.96156 5.792V8H5.39356V2.064H5.96156V4.952L5.84956 4.736C5.9829 4.432 6.19623 4.19467 6.48956 4.024C6.7829 3.848 7.13223 3.76 7.53756 3.76ZM12.0958 8.048C11.6905 8.048 11.3065 7.984 10.9438 7.856C10.5865 7.72267 10.2985 7.54667 10.0798 7.328L10.3598 6.872C10.5411 7.05867 10.7838 7.21333 11.0878 7.336C11.3971 7.45867 11.7331 7.52 12.0958 7.52C12.5598 7.52 12.9145 7.41867 13.1598 7.216C13.4105 7.01333 13.5358 6.74133 13.5358 6.4C13.5358 6.05867 13.4131 5.78667 13.1678 5.584C12.9278 5.38133 12.5465 5.28 12.0238 5.28H11.6238V4.856L13.3518 2.688L13.4318 2.912H10.3118V2.4H13.9118V2.808L12.1838 4.976L11.9038 4.792H12.1198C12.7918 4.792 13.2931 4.94133 13.6238 5.24C13.9598 5.53867 14.1278 5.92267 14.1278 6.392C14.1278 6.70667 14.0531 6.98933 13.9038 7.24C13.7545 7.49067 13.5278 7.688 13.2238 7.832C12.9251 7.976 12.5491 8.048 12.0958 8.048ZM15.0834 6.856V6.36L18.3554 5.072V5.328L15.0834 4.04V3.544L18.5634 4.936V5.464L15.0834 6.856Z" fill="#4C4C4C"/>
<path d="M4.04 79.856L0.56 78.464V77.936L4.04 76.544V77.04L0.768 78.328V78.072L4.04 79.36V79.856ZM4.40156 81.8L7.04156 74.264H7.56156L4.92156 81.8H4.40156ZM10.2173 76.76C10.5586 76.76 10.8573 76.8267 11.1133 76.96C11.3746 77.088 11.5773 77.2853 11.7213 77.552C11.8706 77.8187 11.9453 78.1547 11.9453 78.56V81H11.3773V78.616C11.3773 78.1733 11.2653 77.84 11.0413 77.616C10.8226 77.3867 10.5133 77.272 10.1133 77.272C9.81458 77.272 9.55325 77.3333 9.32925 77.456C9.11058 77.5733 8.93992 77.7467 8.81725 77.976C8.69992 78.2 8.64125 78.472 8.64125 78.792V81H8.07325V75.064H8.64125V77.952L8.52925 77.736C8.66258 77.432 8.87592 77.1947 9.16925 77.024C9.46258 76.848 9.81192 76.76 10.2173 76.76ZM14.7755 81.048C14.3702 81.048 13.9862 80.984 13.6235 80.856C13.2662 80.7227 12.9782 80.5467 12.7595 80.328L13.0395 79.872C13.2208 80.0587 13.4635 80.2133 13.7675 80.336C14.0768 80.4587 14.4128 80.52 14.7755 80.52C15.2395 80.52 15.5942 80.4187 15.8395 80.216C16.0902 80.0133 16.2155 79.7413 16.2155 79.4C16.2155 79.0587 16.0928 78.7867 15.8475 78.584C15.6075 78.3813 15.2262 78.28 14.7035 78.28H14.3035V77.856L16.0315 75.688L16.1115 75.912H12.9915V75.4H16.5915V75.808L14.8635 77.976L14.5835 77.792H14.7995C15.4715 77.792 15.9728 77.9413 16.3035 78.24C16.6395 78.5387 16.8075 78.9227 16.8075 79.392C16.8075 79.7067 16.7328 79.9893 16.5835 80.24C16.4342 80.4907 16.2075 80.688 15.9035 80.832C15.6048 80.976 15.2288 81.048 14.7755 81.048ZM17.7631 79.856V79.36L21.0351 78.072V78.328L17.7631 77.04V76.544L21.2431 77.936V78.464L17.7631 79.856Z" fill="#6D6D6D"/>
<line x1="6.5" y1="10" x2="6.5" y2="70" stroke="#7C7C7C"/>
<path d="M13.912 23V17.4H16.328C16.952 17.4 17.4347 17.5253 17.776 17.776C18.1227 18.0267 18.296 18.3813 18.296 18.84C18.296 19.144 18.224 19.4 18.08 19.608C17.9413 19.816 17.7493 19.9733 17.504 20.08C17.264 20.1867 17 20.24 16.712 20.24L16.848 20.048C17.2053 20.048 17.512 20.104 17.768 20.216C18.0293 20.3227 18.232 20.4853 18.376 20.704C18.52 20.9173 18.592 21.184 18.592 21.504C18.592 21.9787 18.416 22.3467 18.064 22.608C17.7173 22.8693 17.192 23 16.488 23H13.912ZM14.504 22.512H16.48C16.9707 22.512 17.3467 22.4293 17.608 22.264C17.8693 22.0933 18 21.824 18 21.456C18 21.0933 17.8693 20.8293 17.608 20.664C17.3467 20.4933 16.9707 20.408 16.48 20.408H14.44V19.92H16.288C16.736 19.92 17.0827 19.8347 17.328 19.664C17.5787 19.4933 17.704 19.24 17.704 18.904C17.704 18.5627 17.5787 18.3093 17.328 18.144C17.0827 17.9733 16.736 17.888 16.288 17.888H14.504V22.512ZM22.4553 23V22.072L22.4313 21.92V20.368C22.4313 20.0107 22.3299 19.736 22.1273 19.544C21.9299 19.352 21.6339 19.256 21.2393 19.256C20.9673 19.256 20.7086 19.3013 20.4633 19.392C20.2179 19.4827 20.0099 19.6027 19.8393 19.752L19.5833 19.328C19.7966 19.1467 20.0526 19.008 20.3513 18.912C20.6499 18.8107 20.9646 18.76 21.2953 18.76C21.8393 18.76 22.2579 18.896 22.5513 19.168C22.8499 19.4347 22.9993 19.8427 22.9993 20.392V23H22.4553ZM21.0073 23.04C20.6926 23.04 20.4179 22.9893 20.1833 22.888C19.9539 22.7813 19.7779 22.6373 19.6553 22.456C19.5326 22.2693 19.4713 22.056 19.4713 21.816C19.4713 21.5973 19.5219 21.4 19.6233 21.224C19.7299 21.0427 19.9006 20.8987 20.1353 20.792C20.3753 20.68 20.6953 20.624 21.0953 20.624H22.5433V21.048H21.1113C20.7059 21.048 20.4233 21.12 20.2633 21.264C20.1086 21.408 20.0312 21.5867 20.0312 21.8C20.0312 22.04 20.1246 22.232 20.3113 22.376C20.4979 22.52 20.7593 22.592 21.0953 22.592C21.4153 22.592 21.6899 22.52 21.9193 22.376C22.1539 22.2267 22.3246 22.0133 22.4313 21.736L22.5593 22.128C22.4526 22.4053 22.2659 22.6267 21.9993 22.792C21.7379 22.9573 21.4073 23.04 21.0073 23.04ZM26.286 23.04C25.87 23.04 25.4967 22.9493 25.166 22.768C24.8407 22.5813 24.5847 22.328 24.398 22.008C24.2113 21.6827 24.118 21.312 24.118 20.896C24.118 20.4747 24.2113 20.104 24.398 19.784C24.5847 19.464 24.8407 19.2133 25.166 19.032C25.4967 18.8507 25.87 18.76 26.286 18.76C26.6433 18.76 26.966 18.8293 27.254 18.968C27.542 19.1067 27.7687 19.3147 27.934 19.592L27.51 19.88C27.366 19.6667 27.1873 19.5093 26.974 19.408C26.7607 19.3067 26.5287 19.256 26.278 19.256C25.9793 19.256 25.71 19.3253 25.47 19.464C25.23 19.5973 25.0407 19.7867 24.902 20.032C24.7633 20.2773 24.694 20.5653 24.694 20.896C24.694 21.2267 24.7633 21.5147 24.902 21.76C25.0407 22.0053 25.23 22.1973 25.47 22.336C25.71 22.4693 25.9793 22.536 26.278 22.536C26.5287 22.536 26.7607 22.4853 26.974 22.384C27.1873 22.2827 27.366 22.128 27.51 21.92L27.934 22.208C27.7687 22.48 27.542 22.688 27.254 22.832C26.966 22.9707 26.6433 23.04 26.286 23.04ZM29.4353 21.912L29.4513 21.184L32.0673 18.8H32.7633L30.9153 20.568L30.5953 20.84L29.4353 21.912ZM28.9873 23V17.064H29.5553V23H28.9873ZM32.2433 23L30.4913 20.816L30.8593 20.376L32.9393 23H32.2433ZM35.4119 23.04C34.9746 23.04 34.5906 22.9493 34.2599 22.768C33.9293 22.5813 33.6706 22.328 33.4839 22.008C33.2973 21.6827 33.2039 21.312 33.2039 20.896C33.2039 20.48 33.2919 20.112 33.4679 19.792C33.6493 19.472 33.8946 19.2213 34.2039 19.04C34.5186 18.8533 34.8706 18.76 35.2599 18.76C35.6546 18.76 36.0039 18.8507 36.3079 19.032C36.6173 19.208 36.8599 19.4587 37.0359 19.784C37.2119 20.104 37.2999 20.4747 37.2999 20.896C37.2999 20.9227 37.2973 20.952 37.2919 20.984C37.2919 21.0107 37.2919 21.04 37.2919 21.072H33.6359V20.648H36.9879L36.7639 20.816C36.7639 20.512 36.6973 20.2427 36.5639 20.008C36.4359 19.768 36.2599 19.5813 36.0359 19.448C35.8119 19.3147 35.5533 19.248 35.2599 19.248C34.9719 19.248 34.7133 19.3147 34.4839 19.448C34.2546 19.5813 34.0759 19.768 33.9479 20.008C33.8199 20.248 33.7559 20.5227 33.7559 20.832V20.92C33.7559 21.24 33.8253 21.5227 33.9639 21.768C34.1079 22.008 34.3053 22.1973 34.5559 22.336C34.8119 22.4693 35.1026 22.536 35.4279 22.536C35.6839 22.536 35.9213 22.4907 36.1399 22.4C36.3639 22.3093 36.5559 22.1707 36.7159 21.984L37.0359 22.352C36.8493 22.576 36.6146 22.7467 36.3319 22.864C36.0546 22.9813 35.7479 23.04 35.4119 23.04ZM40.6001 18.76C40.9414 18.76 41.2401 18.8267 41.4961 18.96C41.7574 19.088 41.9601 19.2853 42.1041 19.552C42.2534 19.8187 42.3281 20.1547 42.3281 20.56V23H41.7601V20.616C41.7601 20.1733 41.6481 19.84 41.4241 19.616C41.2054 19.3867 40.8961 19.272 40.4961 19.272C40.1974 19.272 39.9361 19.3333 39.7121 19.456C39.4934 19.5733 39.3227 19.7467 39.2001 19.976C39.0827 20.2 39.0241 20.472 39.0241 20.792V23H38.4561V18.8H39.0001V19.952L38.9121 19.736C39.0454 19.432 39.2587 19.1947 39.5521 19.024C39.8454 18.848 40.1947 18.76 40.6001 18.76ZM45.5343 23.04C45.1343 23.04 44.7743 22.9493 44.4543 22.768C44.1396 22.5867 43.8916 22.336 43.7103 22.016C43.529 21.6907 43.4383 21.3173 43.4383 20.896C43.4383 20.4693 43.529 20.096 43.7103 19.776C43.8916 19.456 44.1396 19.208 44.4543 19.032C44.7743 18.8507 45.1343 18.76 45.5343 18.76C45.9023 18.76 46.2303 18.8427 46.5183 19.008C46.8116 19.1733 47.0436 19.416 47.2143 19.736C47.3903 20.0507 47.4783 20.4373 47.4783 20.896C47.4783 21.3493 47.393 21.736 47.2223 22.056C47.0516 22.376 46.8196 22.6213 46.5263 22.792C46.2383 22.9573 45.9076 23.04 45.5343 23.04ZM45.5743 22.536C45.873 22.536 46.1396 22.4693 46.3743 22.336C46.6143 22.1973 46.801 22.0053 46.9343 21.76C47.073 21.5093 47.1423 21.2213 47.1423 20.896C47.1423 20.5653 47.073 20.2773 46.9343 20.032C46.801 19.7867 46.6143 19.5973 46.3743 19.464C46.1396 19.3253 45.873 19.256 45.5743 19.256C45.281 19.256 45.017 19.3253 44.7823 19.464C44.5476 19.5973 44.361 19.7867 44.2223 20.032C44.0836 20.2773 44.0143 20.5653 44.0143 20.896C44.0143 21.2213 44.0836 21.5093 44.2223 21.76C44.361 22.0053 44.5476 22.1973 44.7823 22.336C45.017 22.4693 45.281 22.536 45.5743 22.536ZM47.1583 23V21.736L47.2143 20.888L47.1343 20.04V17.064H47.7023V23H47.1583ZM49.3402 19.632C49.2229 19.632 49.1215 19.5893 49.0362 19.504C48.9562 19.4187 48.9162 19.3147 48.9162 19.192C48.9162 19.064 48.9562 18.96 49.0362 18.88C49.1215 18.8 49.2229 18.76 49.3402 18.76C49.4575 18.76 49.5562 18.8 49.6362 18.88C49.7215 18.96 49.7642 19.064 49.7642 19.192C49.7642 19.3147 49.7215 19.4187 49.6362 19.504C49.5562 19.5893 49.4575 19.632 49.3402 19.632ZM49.3402 23.04C49.2229 23.04 49.1215 22.9973 49.0362 22.912C48.9562 22.8267 48.9162 22.7227 48.9162 22.6C48.9162 22.472 48.9562 22.368 49.0362 22.288C49.1215 22.208 49.2229 22.168 49.3402 22.168C49.4575 22.168 49.5562 22.208 49.6362 22.288C49.7215 22.368 49.7642 22.472 49.7642 22.6C49.7642 22.7227 49.7215 22.8267 49.6362 22.912C49.5562 22.9973 49.4575 23.04 49.3402 23.04ZM53.1933 23V17.4H53.7853V22.488H56.9213V23H53.1933ZM60.4162 23V22.072L60.3922 21.92V20.368C60.3922 20.0107 60.2909 19.736 60.0882 19.544C59.8909 19.352 59.5949 19.256 59.2002 19.256C58.9282 19.256 58.6695 19.3013 58.4242 19.392C58.1789 19.4827 57.9709 19.6027 57.8002 19.752L57.5442 19.328C57.7575 19.1467 58.0135 19.008 58.3122 18.912C58.6109 18.8107 58.9255 18.76 59.2562 18.76C59.8002 18.76 60.2189 18.896 60.5122 19.168C60.8109 19.4347 60.9602 19.8427 60.9602 20.392V23H60.4162ZM58.9682 23.04C58.6535 23.04 58.3789 22.9893 58.1442 22.888C57.9149 22.7813 57.7389 22.6373 57.6162 22.456C57.4935 22.2693 57.4322 22.056 57.4322 21.816C57.4322 21.5973 57.4829 21.4 57.5842 21.224C57.6909 21.0427 57.8615 20.8987 58.0962 20.792C58.3362 20.68 58.6562 20.624 59.0562 20.624H60.5042V21.048H59.0722C58.6669 21.048 58.3842 21.12 58.2242 21.264C58.0695 21.408 57.9922 21.5867 57.9922 21.8C57.9922 22.04 58.0855 22.232 58.2722 22.376C58.4589 22.52 58.7202 22.592 59.0562 22.592C59.3762 22.592 59.6509 22.52 59.8802 22.376C60.1149 22.2267 60.2855 22.0133 60.3922 21.736L60.5202 22.128C60.4135 22.4053 60.2269 22.6267 59.9602 22.792C59.6989 22.9573 59.3682 23.04 58.9682 23.04ZM62.5029 23V18.8H63.0469V19.944L62.9909 19.744C63.1083 19.424 63.3056 19.1813 63.5829 19.016C63.8603 18.8453 64.2043 18.76 64.6149 18.76V19.312C64.5936 19.312 64.5723 19.312 64.5509 19.312C64.5296 19.3067 64.5083 19.304 64.4869 19.304C64.0443 19.304 63.6976 19.44 63.4469 19.712C63.1963 19.9787 63.0709 20.36 63.0709 20.856V23H62.5029ZM67.9709 23V22.072L67.9469 21.92V20.368C67.9469 20.0107 67.8455 19.736 67.6429 19.544C67.4455 19.352 67.1495 19.256 66.7549 19.256C66.4829 19.256 66.2242 19.3013 65.9789 19.392C65.7335 19.4827 65.5255 19.6027 65.3549 19.752L65.0989 19.328C65.3122 19.1467 65.5682 19.008 65.8669 18.912C66.1655 18.8107 66.4802 18.76 66.8109 18.76C67.3549 18.76 67.7735 18.896 68.0669 19.168C68.3655 19.4347 68.5149 19.8427 68.5149 20.392V23H67.9709ZM66.5229 23.04C66.2082 23.04 65.9335 22.9893 65.6989 22.888C65.4695 22.7813 65.2935 22.6373 65.1709 22.456C65.0482 22.2693 64.9869 22.056 64.9869 21.816C64.9869 21.5973 65.0375 21.4 65.1389 21.224C65.2455 21.0427 65.4162 20.8987 65.6509 20.792C65.8909 20.68 66.2109 20.624 66.6109 20.624H68.0589V21.048H66.6269C66.2215 21.048 65.9389 21.12 65.7789 21.264C65.6242 21.408 65.5469 21.5867 65.5469 21.8C65.5469 22.04 65.6402 22.232 65.8269 22.376C66.0135 22.52 66.2749 22.592 66.6109 22.592C66.9309 22.592 67.2055 22.52 67.4349 22.376C67.6695 22.2267 67.8402 22.0133 67.9469 21.736L68.0749 22.128C67.9682 22.4053 67.7815 22.6267 67.5149 22.792C67.2535 22.9573 66.9229 23.04 66.5229 23.04ZM71.0595 23L69.1955 18.8H69.7875L71.4995 22.696H71.2195L72.9555 18.8H73.5155L71.6435 23H71.0595ZM75.9823 23.04C75.5449 23.04 75.1609 22.9493 74.8303 22.768C74.4996 22.5813 74.2409 22.328 74.0543 22.008C73.8676 21.6827 73.7743 21.312 73.7743 20.896C73.7743 20.48 73.8623 20.112 74.0383 19.792C74.2196 19.472 74.4649 19.2213 74.7743 19.04C75.0889 18.8533 75.4409 18.76 75.8303 18.76C76.2249 18.76 76.5743 18.8507 76.8783 19.032C77.1876 19.208 77.4303 19.4587 77.6063 19.784C77.7823 20.104 77.8703 20.4747 77.8703 20.896C77.8703 20.9227 77.8676 20.952 77.8623 20.984C77.8623 21.0107 77.8623 21.04 77.8623 21.072H74.2063V20.648H77.5583L77.3343 20.816C77.3343 20.512 77.2676 20.2427 77.1343 20.008C77.0063 19.768 76.8303 19.5813 76.6063 19.448C76.3823 19.3147 76.1236 19.248 75.8303 19.248C75.5423 19.248 75.2836 19.3147 75.0543 19.448C74.8249 19.5813 74.6463 19.768 74.5183 20.008C74.3903 20.248 74.3263 20.5227 74.3263 20.832V20.92C74.3263 21.24 74.3956 21.5227 74.5343 21.768C74.6783 22.008 74.8756 22.1973 75.1263 22.336C75.3823 22.4693 75.6729 22.536 75.9983 22.536C76.2543 22.536 76.4916 22.4907 76.7103 22.4C76.9343 22.3093 77.1263 22.1707 77.2863 21.984L77.6063 22.352C77.4196 22.576 77.1849 22.7467 76.9023 22.864C76.6249 22.9813 76.3183 23.04 75.9823 23.04ZM79.0264 23V17.064H79.5944V23H79.0264ZM80.8308 24.168L81.1828 22.688L81.2468 23.032C81.1241 23.032 81.0201 22.992 80.9348 22.912C80.8548 22.832 80.8148 22.728 80.8148 22.6C80.8148 22.472 80.8548 22.368 80.9348 22.288C81.0201 22.208 81.1215 22.168 81.2388 22.168C81.3615 22.168 81.4601 22.2107 81.5348 22.296C81.6148 22.3813 81.6548 22.4827 81.6548 22.6C81.6548 22.6427 81.6521 22.6853 81.6468 22.728C81.6415 22.7707 81.6308 22.8187 81.6148 22.872C81.5988 22.9253 81.5775 22.9893 81.5508 23.064L81.2148 24.168H80.8308ZM85.6839 23.048C85.3692 23.048 85.0732 22.9787 84.7959 22.84C84.5239 22.7013 84.3052 22.504 84.1399 22.248L84.4839 21.848C84.6385 22.072 84.8172 22.2427 85.0199 22.36C85.2225 22.4773 85.4465 22.536 85.6919 22.536C86.3852 22.536 86.7319 22.1253 86.7319 21.304V17.912H84.6839V17.4H87.3159V21.28C87.3159 21.872 87.1772 22.3147 86.8999 22.608C86.6279 22.9013 86.2225 23.048 85.6839 23.048ZM91.6037 23V22.072L91.5797 21.92V20.368C91.5797 20.0107 91.4784 19.736 91.2757 19.544C91.0784 19.352 90.7824 19.256 90.3877 19.256C90.1157 19.256 89.857 19.3013 89.6117 19.392C89.3664 19.4827 89.1584 19.6027 88.9877 19.752L88.7317 19.328C88.945 19.1467 89.201 19.008 89.4997 18.912C89.7984 18.8107 90.113 18.76 90.4437 18.76C90.9877 18.76 91.4064 18.896 91.6997 19.168C91.9984 19.4347 92.1477 19.8427 92.1477 20.392V23H91.6037ZM90.1557 23.04C89.841 23.04 89.5664 22.9893 89.3317 22.888C89.1024 22.7813 88.9264 22.6373 88.8037 22.456C88.681 22.2693 88.6197 22.056 88.6197 21.816C88.6197 21.5973 88.6704 21.4 88.7717 21.224C88.8784 21.0427 89.049 20.8987 89.2837 20.792C89.5237 20.68 89.8437 20.624 90.2437 20.624H91.6917V21.048H90.2597C89.8544 21.048 89.5717 21.12 89.4117 21.264C89.257 21.408 89.1797 21.5867 89.1797 21.8C89.1797 22.04 89.273 22.232 89.4597 22.376C89.6464 22.52 89.9077 22.592 90.2437 22.592C90.5637 22.592 90.8384 22.52 91.0677 22.376C91.3024 22.2267 91.473 22.0133 91.5797 21.736L91.7077 22.128C91.601 22.4053 91.4144 22.6267 91.1477 22.792C90.8864 22.9573 90.5557 23.04 90.1557 23.04ZM94.6923 23L92.8283 18.8H93.4203L95.1323 22.696H94.8523L96.5883 18.8H97.1483L95.2763 23H94.6923ZM100.455 23V22.072L100.431 21.92V20.368C100.431 20.0107 100.33 19.736 100.127 19.544C99.9299 19.352 99.6339 19.256 99.2393 19.256C98.9673 19.256 98.7086 19.3013 98.4633 19.392C98.2179 19.4827 98.0099 19.6027 97.8393 19.752L97.5833 19.328C97.7966 19.1467 98.0526 19.008 98.3513 18.912C98.6499 18.8107 98.9646 18.76 99.2953 18.76C99.8393 18.76 100.258 18.896 100.551 19.168C100.85 19.4347 100.999 19.8427 100.999 20.392V23H100.455ZM99.0073 23.04C98.6926 23.04 98.4179 22.9893 98.1833 22.888C97.9539 22.7813 97.7779 22.6373 97.6553 22.456C97.5326 22.2693 97.4713 22.056 97.4713 21.816C97.4713 21.5973 97.5219 21.4 97.6233 21.224C97.7299 21.0427 97.9006 20.8987 98.1353 20.792C98.3753 20.68 98.6953 20.624 99.0953 20.624H100.543V21.048H99.1113C98.7059 21.048 98.4233 21.12 98.2633 21.264C98.1086 21.408 98.0312 21.5867 98.0312 21.8C98.0312 22.04 98.1246 22.232 98.3113 22.376C98.4979 22.52 98.7593 22.592 99.0953 22.592C99.4153 22.592 99.6899 22.52 99.9193 22.376C100.154 22.2267 100.325 22.0133 100.431 21.736L100.559 22.128C100.453 22.4053 100.266 22.6267 99.9993 22.792C99.7379 22.9573 99.4073 23.04 99.0073 23.04ZM14.92 33.04C14.5733 33.04 14.2453 32.992 13.936 32.896C13.6267 32.7947 13.384 32.6693 13.208 32.52L13.464 32.072C13.6347 32.2 13.8533 32.312 14.12 32.408C14.3867 32.4987 14.6667 32.544 14.96 32.544C15.36 32.544 15.648 32.4827 15.824 32.36C16 32.232 16.088 32.064 16.088 31.856C16.088 31.7013 16.0373 31.5813 15.936 31.496C15.84 31.4053 15.712 31.3387 15.552 31.296C15.392 31.248 15.2133 31.208 15.016 31.176C14.8187 31.144 14.6213 31.1067 14.424 31.064C14.232 31.0213 14.056 30.96 13.896 30.88C13.736 30.7947 13.6053 30.68 13.504 30.536C13.408 30.392 13.36 30.2 13.36 29.96C13.36 29.7307 13.424 29.5253 13.552 29.344C13.68 29.1627 13.8667 29.0213 14.112 28.92C14.3627 28.8133 14.6667 28.76 15.024 28.76C15.296 28.76 15.568 28.7973 15.84 28.872C16.112 28.9413 16.336 29.0347 16.512 29.152L16.264 29.608C16.0773 29.48 15.8773 29.3893 15.664 29.336C15.4507 29.2773 15.2373 29.248 15.024 29.248C14.6453 29.248 14.3653 29.3147 14.184 29.448C14.008 29.576 13.92 29.7413 13.92 29.944C13.92 30.104 13.968 30.2293 14.064 30.32C14.1653 30.4107 14.296 30.4827 14.456 30.536C14.6213 30.584 14.8 30.624 14.992 30.656C15.1893 30.688 15.384 30.728 15.576 30.776C15.7733 30.8187 15.952 30.88 16.112 30.96C16.2773 31.0347 16.408 31.144 16.504 31.288C16.6053 31.4267 16.656 31.6107 16.656 31.84C16.656 32.0853 16.5867 32.2987 16.448 32.48C16.3147 32.656 16.1173 32.7947 15.856 32.896C15.6 32.992 15.288 33.04 14.92 33.04ZM19.8663 33.04C19.5036 33.04 19.1756 32.9573 18.8823 32.792C18.5889 32.6213 18.3543 32.3787 18.1783 32.064C18.0076 31.744 17.9223 31.3547 17.9223 30.896C17.9223 30.4373 18.0076 30.0507 18.1783 29.736C18.3489 29.416 18.5809 29.1733 18.8743 29.008C19.1676 28.8427 19.4983 28.76 19.8663 28.76C20.2663 28.76 20.6236 28.8507 20.9383 29.032C21.2583 29.208 21.5089 29.4587 21.6903 29.784C21.8716 30.104 21.9623 30.4747 21.9623 30.896C21.9623 31.3227 21.8716 31.696 21.6903 32.016C21.5089 32.336 21.2583 32.5867 20.9383 32.768C20.6236 32.9493 20.2663 33.04 19.8663 33.04ZM17.6983 34.552V28.8H18.2423V30.064L18.1863 30.904L18.2663 31.752V34.552H17.6983ZM19.8263 32.536C20.1249 32.536 20.3916 32.4693 20.6263 32.336C20.8609 32.1973 21.0476 32.0053 21.1863 31.76C21.3249 31.5093 21.3943 31.2213 21.3943 30.896C21.3943 30.5707 21.3249 30.2853 21.1863 30.04C21.0476 29.7947 20.8609 29.6027 20.6263 29.464C20.3916 29.3253 20.1249 29.256 19.8263 29.256C19.5276 29.256 19.2583 29.3253 19.0182 29.464C18.7836 29.6027 18.5969 29.7947 18.4583 30.04C18.3249 30.2853 18.2583 30.5707 18.2583 30.896C18.2583 31.2213 18.3249 31.5093 18.4583 31.76C18.5969 32.0053 18.7836 32.1973 19.0182 32.336C19.2583 32.4693 19.5276 32.536 19.8263 32.536ZM23.1201 33V28.8H23.6641V29.944L23.6081 29.744C23.7255 29.424 23.9228 29.1813 24.2001 29.016C24.4775 28.8453 24.8215 28.76 25.2321 28.76V29.312C25.2108 29.312 25.1895 29.312 25.1681 29.312C25.1468 29.3067 25.1255 29.304 25.1041 29.304C24.6615 29.304 24.3148 29.44 24.0641 29.712C23.8135 29.9787 23.6881 30.36 23.6881 30.856V33H23.1201ZM26.2686 33V28.8H26.8366V33H26.2686ZM26.5566 27.872C26.4392 27.872 26.3406 27.832 26.2606 27.752C26.1806 27.672 26.1406 27.576 26.1406 27.464C26.1406 27.352 26.1806 27.2587 26.2606 27.184C26.3406 27.104 26.4392 27.064 26.5566 27.064C26.6739 27.064 26.7726 27.1013 26.8526 27.176C26.9326 27.2507 26.9726 27.344 26.9726 27.456C26.9726 27.5733 26.9326 27.672 26.8526 27.752C26.7779 27.832 26.6792 27.872 26.5566 27.872ZM30.561 28.76C30.9023 28.76 31.201 28.8267 31.457 28.96C31.7183 29.088 31.921 29.2853 32.065 29.552C32.2143 29.8187 32.289 30.1547 32.289 30.56V33H31.721V30.616C31.721 30.1733 31.609 29.84 31.385 29.616C31.1663 29.3867 30.857 29.272 30.457 29.272C30.1583 29.272 29.897 29.3333 29.673 29.456C29.4543 29.5733 29.2837 29.7467 29.161 29.976C29.0437 30.2 28.985 30.472 28.985 30.792V33H28.417V28.8H28.961V29.952L28.873 29.736C29.0063 29.432 29.2197 29.1947 29.513 29.024C29.8063 28.848 30.1557 28.76 30.561 28.76ZM35.6153 34.592C35.2313 34.592 34.8633 34.536 34.5113 34.424C34.1593 34.312 33.8739 34.152 33.6553 33.944L33.9433 33.512C34.1406 33.688 34.3833 33.8267 34.6713 33.928C34.9646 34.0347 35.2739 34.088 35.5993 34.088C36.1326 34.088 36.5246 33.9627 36.7753 33.712C37.0259 33.4667 37.1513 33.0827 37.1513 32.56V31.512L37.2313 30.792L37.1753 30.072V28.8H37.7193V32.488C37.7193 33.2133 37.5406 33.744 37.1833 34.08C36.8313 34.4213 36.3086 34.592 35.6153 34.592ZM35.5113 32.84C35.1113 32.84 34.7513 32.7547 34.4313 32.584C34.1113 32.408 33.8579 32.1653 33.6713 31.856C33.4899 31.5467 33.3993 31.192 33.3993 30.792C33.3993 30.392 33.4899 30.04 33.6713 29.736C33.8579 29.4267 34.1113 29.1867 34.4313 29.016C34.7513 28.8453 35.1113 28.76 35.5113 28.76C35.8846 28.76 36.2206 28.8373 36.5193 28.992C36.8179 29.1467 37.0553 29.376 37.2313 29.68C37.4073 29.984 37.4953 30.3547 37.4953 30.792C37.4953 31.2293 37.4073 31.6 37.2313 31.904C37.0553 32.208 36.8179 32.44 36.5193 32.6C36.2206 32.76 35.8846 32.84 35.5113 32.84ZM35.5673 32.336C35.8766 32.336 36.1513 32.272 36.3913 32.144C36.6313 32.0107 36.8206 31.8293 36.9593 31.6C37.0979 31.3653 37.1673 31.096 37.1673 30.792C37.1673 30.488 37.0979 30.2213 36.9593 29.992C36.8206 29.7627 36.6313 29.584 36.3913 29.456C36.1513 29.3227 35.8766 29.256 35.5673 29.256C35.2633 29.256 34.9886 29.3227 34.7433 29.456C34.5033 29.584 34.3139 29.7627 34.1753 29.992C34.0419 30.2213 33.9753 30.488 33.9753 30.792C33.9753 31.096 34.0419 31.3653 34.1753 31.6C34.3139 31.8293 34.5033 32.0107 34.7433 32.144C34.9886 32.272 35.2633 32.336 35.5673 32.336ZM43.5616 33.04C43.1936 33.04 42.8629 32.9573 42.5696 32.792C42.2762 32.6213 42.0442 32.376 41.8736 32.056C41.7029 31.736 41.6176 31.3493 41.6176 30.896C41.6176 30.4373 41.7029 30.0507 41.8736 29.736C42.0496 29.416 42.2842 29.1733 42.5776 29.008C42.8709 28.8427 43.1989 28.76 43.5616 28.76C43.9616 28.76 44.3189 28.8507 44.6336 29.032C44.9536 29.208 45.2042 29.456 45.3856 29.776C45.5669 30.096 45.6576 30.4693 45.6576 30.896C45.6576 31.3173 45.5669 31.6907 45.3856 32.016C45.2042 32.336 44.9536 32.5867 44.6336 32.768C44.3189 32.9493 43.9616 33.04 43.5616 33.04ZM41.3936 33V27.064H41.9616V30.04L41.8816 30.888L41.9376 31.736V33H41.3936ZM43.5216 32.536C43.8202 32.536 44.0869 32.4693 44.3216 32.336C44.5562 32.1973 44.7429 32.0053 44.8816 31.76C45.0202 31.5093 45.0896 31.2213 45.0896 30.896C45.0896 30.5653 45.0202 30.2773 44.8816 30.032C44.7429 29.7867 44.5562 29.5973 44.3216 29.464C44.0869 29.3253 43.8202 29.256 43.5216 29.256C43.2229 29.256 42.9536 29.3253 42.7136 29.464C42.4789 29.5973 42.2922 29.7867 42.1536 30.032C42.0202 30.2773 41.9536 30.5653 41.9536 30.896C41.9536 31.2213 42.0202 31.5093 42.1536 31.76C42.2922 32.0053 42.4789 32.1973 42.7136 32.336C42.9536 32.4693 43.2229 32.536 43.5216 32.536ZM48.5274 33.04C48.1221 33.04 47.7568 32.9493 47.4314 32.768C47.1114 32.5813 46.8581 32.328 46.6714 32.008C46.4848 31.6827 46.3914 31.312 46.3914 30.896C46.3914 30.4747 46.4848 30.104 46.6714 29.784C46.8581 29.464 47.1114 29.2133 47.4314 29.032C47.7514 28.8507 48.1168 28.76 48.5274 28.76C48.9434 28.76 49.3114 28.8507 49.6314 29.032C49.9568 29.2133 50.2101 29.464 50.3914 29.784C50.5781 30.104 50.6714 30.4747 50.6714 30.896C50.6714 31.312 50.5781 31.6827 50.3914 32.008C50.2101 32.328 49.9568 32.5813 49.6314 32.768C49.3061 32.9493 48.9381 33.04 48.5274 33.04ZM48.5274 32.536C48.8314 32.536 49.1008 32.4693 49.3354 32.336C49.5701 32.1973 49.7541 32.0053 49.8874 31.76C50.0261 31.5093 50.0954 31.2213 50.0954 30.896C50.0954 30.5653 50.0261 30.2773 49.8874 30.032C49.7541 29.7867 49.5701 29.5973 49.3354 29.464C49.1008 29.3253 48.8341 29.256 48.5354 29.256C48.2368 29.256 47.9701 29.3253 47.7354 29.464C47.5008 29.5973 47.3141 29.7867 47.1754 30.032C47.0368 30.2773 46.9674 30.5653 46.9674 30.896C46.9674 31.2213 47.0368 31.5093 47.1754 31.76C47.3141 32.0053 47.5008 32.1973 47.7354 32.336C47.9701 32.4693 48.2341 32.536 48.5274 32.536ZM53.5431 33.04C53.1377 33.04 52.7724 32.9493 52.4471 32.768C52.1271 32.5813 51.8737 32.328 51.6871 32.008C51.5004 31.6827 51.4071 31.312 51.4071 30.896C51.4071 30.4747 51.5004 30.104 51.6871 29.784C51.8737 29.464 52.1271 29.2133 52.4471 29.032C52.7671 28.8507 53.1324 28.76 53.5431 28.76C53.9591 28.76 54.3271 28.8507 54.6471 29.032C54.9724 29.2133 55.2257 29.464 55.4071 29.784C55.5937 30.104 55.6871 30.4747 55.6871 30.896C55.6871 31.312 55.5937 31.6827 55.4071 32.008C55.2257 32.328 54.9724 32.5813 54.6471 32.768C54.3217 32.9493 53.9537 33.04 53.5431 33.04ZM53.5431 32.536C53.8471 32.536 54.1164 32.4693 54.3511 32.336C54.5857 32.1973 54.7697 32.0053 54.9031 31.76C55.0417 31.5093 55.1111 31.2213 55.1111 30.896C55.1111 30.5653 55.0417 30.2773 54.9031 30.032C54.7697 29.7867 54.5857 29.5973 54.3511 29.464C54.1164 29.3253 53.8497 29.256 53.5511 29.256C53.2524 29.256 52.9857 29.3253 52.7511 29.464C52.5164 29.5973 52.3297 29.7867 52.1911 30.032C52.0524 30.2773 51.9831 30.5653 51.9831 30.896C51.9831 31.2213 52.0524 31.5093 52.1911 31.76C52.3297 32.0053 52.5164 32.1973 52.7511 32.336C52.9857 32.4693 53.2497 32.536 53.5431 32.536ZM58.1747 33.04C57.78 33.04 57.476 32.9333 57.2627 32.72C57.0494 32.5067 56.9427 32.2053 56.9427 31.816V27.872H57.5107V31.784C57.5107 32.0293 57.572 32.2187 57.6947 32.352C57.8227 32.4853 58.004 32.552 58.2387 32.552C58.4894 32.552 58.6974 32.48 58.8627 32.336L59.0627 32.744C58.9507 32.8453 58.8147 32.92 58.6547 32.968C58.5 33.016 58.34 33.04 58.1747 33.04ZM56.1907 29.272V28.8H58.7907V29.272H56.1907ZM59.8308 34.168L60.1828 32.688L60.2468 33.032C60.1241 33.032 60.0201 32.992 59.9348 32.912C59.8548 32.832 59.8148 32.728 59.8148 32.6C59.8148 32.472 59.8548 32.368 59.9348 32.288C60.0201 32.208 60.1215 32.168 60.2388 32.168C60.3615 32.168 60.4601 32.2107 60.5348 32.296C60.6148 32.3813 60.6548 32.4827 60.6548 32.6C60.6548 32.6427 60.6521 32.6853 60.6468 32.728C60.6415 32.7707 60.6308 32.8187 60.6148 32.872C60.5988 32.9253 60.5775 32.9893 60.5508 33.064L60.2148 34.168H59.8308ZM64.0839 33V27.4H64.5719L67.1319 31.768H66.8759L69.4119 27.4H69.8999V33H69.3319V28.288H69.4679L67.1319 32.288H66.8519L64.4999 28.288H64.6519V33H64.0839ZM73.0605 33V30.92L73.1965 31.288L70.8205 27.4H71.4525L73.5405 30.816H73.2045L75.2925 27.4H75.8845L73.5085 31.288L73.6445 30.92V33H73.0605ZM78.2294 33.048C77.8134 33.048 77.4134 32.9813 77.0294 32.848C76.6508 32.7093 76.3574 32.5333 76.1494 32.32L76.3814 31.864C76.5788 32.056 76.8428 32.2187 77.1734 32.352C77.5094 32.48 77.8614 32.544 78.2294 32.544C78.5814 32.544 78.8668 32.5013 79.0854 32.416C79.3094 32.3253 79.4721 32.2053 79.5734 32.056C79.6801 31.9067 79.7334 31.7413 79.7334 31.56C79.7334 31.3413 79.6694 31.1653 79.5414 31.032C79.4188 30.8987 79.2561 30.7947 79.0534 30.72C78.8508 30.64 78.6268 30.5707 78.3814 30.512C78.1361 30.4533 77.8908 30.392 77.6454 30.328C77.4001 30.2587 77.1734 30.168 76.9654 30.056C76.7628 29.944 76.5974 29.7973 76.4694 29.616C76.3468 29.4293 76.2854 29.1867 76.2854 28.888C76.2854 28.6107 76.3574 28.3573 76.5014 28.128C76.6508 27.8933 76.8774 27.7067 77.1814 27.568C77.4854 27.424 77.8748 27.352 78.3494 27.352C78.6641 27.352 78.9761 27.3973 79.2854 27.488C79.5948 27.5733 79.8614 27.6933 80.0854 27.848L79.8854 28.32C79.6454 28.16 79.3894 28.0427 79.1174 27.968C78.8508 27.8933 78.5921 27.856 78.3414 27.856C78.0054 27.856 77.7281 27.9013 77.5094 27.992C77.2908 28.0827 77.1281 28.2053 77.0214 28.36C76.9201 28.5093 76.8694 28.68 76.8694 28.872C76.8694 29.0907 76.9308 29.2667 77.0534 29.4C77.1814 29.5333 77.3468 29.6373 77.5494 29.712C77.7574 29.7867 77.9841 29.8533 78.2294 29.912C78.4748 29.9707 78.7174 30.0347 78.9574 30.104C79.2028 30.1733 79.4268 30.264 79.6294 30.376C79.8374 30.4827 80.0028 30.6267 80.1254 30.808C80.2534 30.9893 80.3174 31.2267 80.3174 31.52C80.3174 31.792 80.2428 32.0453 80.0934 32.28C79.9441 32.5093 79.7148 32.696 79.4054 32.84C79.1014 32.9787 78.7094 33.048 78.2294 33.048ZM83.1593 33.04C82.7593 33.04 82.3993 32.9493 82.0793 32.768C81.7646 32.5867 81.5166 32.336 81.3353 32.016C81.154 31.696 81.0633 31.3227 81.0633 30.896C81.0633 30.4747 81.154 30.104 81.3353 29.784C81.5166 29.4587 81.7646 29.208 82.0793 29.032C82.3993 28.8507 82.7593 28.76 83.1593 28.76C83.5326 28.76 83.8633 28.8427 84.1513 29.008C84.4446 29.1733 84.6766 29.416 84.8473 29.736C85.018 30.0507 85.1033 30.4373 85.1033 30.896C85.1033 31.3547 85.0153 31.744 84.8393 32.064C84.6686 32.3787 84.4366 32.6213 84.1433 32.792C83.8553 32.9573 83.5273 33.04 83.1593 33.04ZM83.1993 32.536C83.498 32.536 83.7646 32.4693 83.9993 32.336C84.2393 32.1973 84.426 32.0053 84.5593 31.76C84.698 31.5093 84.7673 31.2213 84.7673 30.896C84.7673 30.5707 84.698 30.2853 84.5593 30.04C84.426 29.7947 84.2393 29.6027 83.9993 29.464C83.7646 29.3253 83.498 29.256 83.1993 29.256C82.906 29.256 82.642 29.3253 82.4073 29.464C82.1726 29.6027 81.986 29.7947 81.8473 30.04C81.7086 30.2853 81.6393 30.5707 81.6393 30.896C81.6393 31.2213 81.7086 31.5093 81.8473 31.76C81.986 32.0053 82.1726 32.1973 82.4073 32.336C82.642 32.4693 82.906 32.536 83.1993 32.536ZM84.7593 34.552V31.752L84.8393 30.904L84.7833 30.064V28.8H85.3273V34.552H84.7593ZM86.9092 33V27.064H87.4772V33H86.9092ZM14.44 50.112H17.4V50.624H14.44V50.112ZM14.504 53H13.912V47.4H17.752V47.912H14.504V53ZM18.7764 53V48.8H19.3204V49.944L19.2644 49.744C19.3817 49.424 19.579 49.1813 19.8564 49.016C20.1337 48.8453 20.4777 48.76 20.8884 48.76V49.312C20.867 49.312 20.8457 49.312 20.8244 49.312C20.803 49.3067 20.7817 49.304 20.7604 49.304C20.3177 49.304 19.971 49.44 19.7204 49.712C19.4697 49.9787 19.3444 50.36 19.3444 50.856V53H18.7764ZM23.5978 53.04C23.1924 53.04 22.8271 52.9493 22.5018 52.768C22.1818 52.5813 21.9284 52.328 21.7418 52.008C21.5551 51.6827 21.4618 51.312 21.4618 50.896C21.4618 50.4747 21.5551 50.104 21.7418 49.784C21.9284 49.464 22.1818 49.2133 22.5018 49.032C22.8218 48.8507 23.1871 48.76 23.5978 48.76C24.0138 48.76 24.3818 48.8507 24.7018 49.032C25.0271 49.2133 25.2804 49.464 25.4618 49.784C25.6484 50.104 25.7418 50.4747 25.7418 50.896C25.7418 51.312 25.6484 51.6827 25.4618 52.008C25.2804 52.328 25.0271 52.5813 24.7018 52.768C24.3764 52.9493 24.0084 53.04 23.5978 53.04ZM23.5978 52.536C23.9018 52.536 24.1711 52.4693 24.4058 52.336C24.6404 52.1973 24.8244 52.0053 24.9578 51.76C25.0964 51.5093 25.1658 51.2213 25.1658 50.896C25.1658 50.5653 25.0964 50.2773 24.9578 50.032C24.8244 49.7867 24.6404 49.5973 24.4058 49.464C24.1711 49.3253 23.9044 49.256 23.6058 49.256C23.3071 49.256 23.0404 49.3253 22.8058 49.464C22.5711 49.5973 22.3844 49.7867 22.2458 50.032C22.1071 50.2773 22.0378 50.5653 22.0378 50.896C22.0378 51.2213 22.1071 51.5093 22.2458 51.76C22.3844 52.0053 22.5711 52.1973 22.8058 52.336C23.0404 52.4693 23.3044 52.536 23.5978 52.536ZM29.0454 48.76C29.3867 48.76 29.6854 48.8267 29.9414 48.96C30.2027 49.088 30.4054 49.2853 30.5494 49.552C30.6987 49.8187 30.7734 50.1547 30.7734 50.56V53H30.2054V50.616C30.2054 50.1733 30.0934 49.84 29.8694 49.616C29.6507 49.3867 29.3414 49.272 28.9414 49.272C28.6427 49.272 28.3814 49.3333 28.1574 49.456C27.9387 49.5733 27.768 49.7467 27.6454 49.976C27.528 50.2 27.4694 50.472 27.4694 50.792V53H26.9014V48.8H27.4454V49.952L27.3574 49.736C27.4907 49.432 27.704 49.1947 27.9974 49.024C28.2907 48.848 28.64 48.76 29.0454 48.76ZM33.6356 53.04C33.241 53.04 32.937 52.9333 32.7236 52.72C32.5103 52.5067 32.4036 52.2053 32.4036 51.816V47.872H32.9716V51.784C32.9716 52.0293 33.033 52.2187 33.1556 52.352C33.2836 52.4853 33.465 52.552 33.6996 52.552C33.9503 52.552 34.1583 52.48 34.3236 52.336L34.5236 52.744C34.4116 52.8453 34.2756 52.92 34.1156 52.968C33.961 53.016 33.801 53.04 33.6356 53.04ZM31.6516 49.272V48.8H34.2516V49.272H31.6516ZM37.1932 53.04C36.7559 53.04 36.3719 52.9493 36.0412 52.768C35.7105 52.5813 35.4519 52.328 35.2652 52.008C35.0785 51.6827 34.9852 51.312 34.9852 50.896C34.9852 50.48 35.0732 50.112 35.2492 49.792C35.4305 49.472 35.6759 49.2213 35.9852 49.04C36.2999 48.8533 36.6519 48.76 37.0412 48.76C37.4359 48.76 37.7852 48.8507 38.0892 49.032C38.3985 49.208 38.6412 49.4587 38.8172 49.784C38.9932 50.104 39.0812 50.4747 39.0812 50.896C39.0812 50.9227 39.0785 50.952 39.0732 50.984C39.0732 51.0107 39.0732 51.04 39.0732 51.072H35.4172V50.648H38.7692L38.5452 50.816C38.5452 50.512 38.4785 50.2427 38.3452 50.008C38.2172 49.768 38.0412 49.5813 37.8172 49.448C37.5932 49.3147 37.3345 49.248 37.0412 49.248C36.7532 49.248 36.4945 49.3147 36.2652 49.448C36.0359 49.5813 35.8572 49.768 35.7292 50.008C35.6012 50.248 35.5372 50.5227 35.5372 50.832V50.92C35.5372 51.24 35.6065 51.5227 35.7452 51.768C35.8892 52.008 36.0865 52.1973 36.3372 52.336C36.5932 52.4693 36.8839 52.536 37.2092 52.536C37.4652 52.536 37.7025 52.4907 37.9212 52.4C38.1452 52.3093 38.3372 52.1707 38.4972 51.984L38.8172 52.352C38.6305 52.576 38.3959 52.7467 38.1132 52.864C37.8359 52.9813 37.5292 53.04 37.1932 53.04ZM42.3813 48.76C42.7226 48.76 43.0213 48.8267 43.2773 48.96C43.5386 49.088 43.7413 49.2853 43.8853 49.552C44.0346 49.8187 44.1093 50.1547 44.1093 50.56V53H43.5413V50.616C43.5413 50.1733 43.4293 49.84 43.2053 49.616C42.9866 49.3867 42.6773 49.272 42.2773 49.272C41.9786 49.272 41.7173 49.3333 41.4933 49.456C41.2746 49.5733 41.104 49.7467 40.9813 49.976C40.864 50.2 40.8053 50.472 40.8053 50.792V53H40.2373V48.8H40.7813V49.952L40.6933 49.736C40.8266 49.432 41.04 49.1947 41.3333 49.024C41.6266 48.848 41.976 48.76 42.3813 48.76ZM47.3156 53.04C46.9156 53.04 46.5556 52.9493 46.2356 52.768C45.9209 52.5867 45.6729 52.336 45.4916 52.016C45.3102 51.6907 45.2196 51.3173 45.2196 50.896C45.2196 50.4693 45.3102 50.096 45.4916 49.776C45.6729 49.456 45.9209 49.208 46.2356 49.032C46.5556 48.8507 46.9156 48.76 47.3156 48.76C47.6836 48.76 48.0116 48.8427 48.2996 49.008C48.5929 49.1733 48.8249 49.416 48.9956 49.736C49.1716 50.0507 49.2596 50.4373 49.2596 50.896C49.2596 51.3493 49.1742 51.736 49.0036 52.056C48.8329 52.376 48.6009 52.6213 48.3076 52.792C48.0196 52.9573 47.6889 53.04 47.3156 53.04ZM47.3556 52.536C47.6542 52.536 47.9209 52.4693 48.1556 52.336C48.3956 52.1973 48.5822 52.0053 48.7156 51.76C48.8542 51.5093 48.9236 51.2213 48.9236 50.896C48.9236 50.5653 48.8542 50.2773 48.7156 50.032C48.5822 49.7867 48.3956 49.5973 48.1556 49.464C47.9209 49.3253 47.6542 49.256 47.3556 49.256C47.0622 49.256 46.7982 49.3253 46.5636 49.464C46.3289 49.5973 46.1422 49.7867 46.0036 50.032C45.8649 50.2773 45.7956 50.5653 45.7956 50.896C45.7956 51.2213 45.8649 51.5093 46.0036 51.76C46.1422 52.0053 46.3289 52.1973 46.5636 52.336C46.7982 52.4693 47.0622 52.536 47.3556 52.536ZM48.9396 53V51.736L48.9956 50.888L48.9156 50.04V47.064H49.4836V53H48.9396ZM51.1214 49.632C51.0041 49.632 50.9028 49.5893 50.8174 49.504C50.7374 49.4187 50.6974 49.3147 50.6974 49.192C50.6974 49.064 50.7374 48.96 50.8174 48.88C50.9028 48.8 51.0041 48.76 51.1214 48.76C51.2388 48.76 51.3374 48.8 51.4174 48.88C51.5028 48.96 51.5454 49.064 51.5454 49.192C51.5454 49.3147 51.5028 49.4187 51.4174 49.504C51.3374 49.5893 51.2388 49.632 51.1214 49.632ZM51.1214 53.04C51.0041 53.04 50.9028 52.9973 50.8174 52.912C50.7374 52.8267 50.6974 52.7227 50.6974 52.6C50.6974 52.472 50.7374 52.368 50.8174 52.288C50.9028 52.208 51.0041 52.168 51.1214 52.168C51.2388 52.168 51.3374 52.208 51.4174 52.288C51.5028 52.368 51.5454 52.472 51.5454 52.6C51.5454 52.7227 51.5028 52.8267 51.4174 52.912C51.3374 52.9973 51.2388 53.04 51.1214 53.04ZM56.5665 53L54.0865 47.4H54.7265L57.0465 52.672H56.6945L59.0305 47.4H59.6305L57.1505 53H56.5665ZM61.9264 53.04C61.5691 53.04 61.2571 52.9733 60.9904 52.84C60.7238 52.7067 60.5158 52.5067 60.3664 52.24C60.2224 51.9733 60.1504 51.64 60.1504 51.24V48.8H60.7184V51.176C60.7184 51.624 60.8278 51.9627 61.0464 52.192C61.2704 52.416 61.5824 52.528 61.9824 52.528C62.2758 52.528 62.5291 52.4693 62.7424 52.352C62.9611 52.2293 63.1264 52.0533 63.2384 51.824C63.3558 51.5947 63.4144 51.32 63.4144 51V48.8H63.9824V53H63.4384V51.848L63.5264 52.056C63.3931 52.3653 63.1851 52.608 62.9024 52.784C62.6251 52.9547 62.2998 53.04 61.9264 53.04ZM67.3494 53.04C66.9121 53.04 66.5281 52.9493 66.1974 52.768C65.8668 52.5813 65.6081 52.328 65.4214 52.008C65.2348 51.6827 65.1414 51.312 65.1414 50.896C65.1414 50.48 65.2294 50.112 65.4054 49.792C65.5868 49.472 65.8321 49.2213 66.1414 49.04C66.4561 48.8533 66.8081 48.76 67.1974 48.76C67.5921 48.76 67.9414 48.8507 68.2454 49.032C68.5548 49.208 68.7974 49.4587 68.9734 49.784C69.1494 50.104 69.2374 50.4747 69.2374 50.896C69.2374 50.9227 69.2348 50.952 69.2294 50.984C69.2294 51.0107 69.2294 51.04 69.2294 51.072H65.5734V50.648H68.9254L68.7014 50.816C68.7014 50.512 68.6348 50.2427 68.5014 50.008C68.3734 49.768 68.1974 49.5813 67.9734 49.448C67.7494 49.3147 67.4908 49.248 67.1974 49.248C66.9094 49.248 66.6508 49.3147 66.4214 49.448C66.1921 49.5813 66.0134 49.768 65.8854 50.008C65.7574 50.248 65.6934 50.5227 65.6934 50.832V50.92C65.6934 51.24 65.7628 51.5227 65.9014 51.768C66.0454 52.008 66.2428 52.1973 66.4934 52.336C66.7494 52.4693 67.0401 52.536 67.3654 52.536C67.6214 52.536 67.8588 52.4907 68.0774 52.4C68.3014 52.3093 68.4934 52.1707 68.6534 51.984L68.9734 52.352C68.7868 52.576 68.5521 52.7467 68.2694 52.864C67.9921 52.9813 67.6854 53.04 67.3494 53.04ZM71.1136 53.048C70.7989 53.048 70.5029 52.9787 70.2256 52.84C69.9536 52.7013 69.7349 52.504 69.5696 52.248L69.9136 51.848C70.0682 52.072 70.2469 52.2427 70.4496 52.36C70.6522 52.4773 70.8762 52.536 71.1216 52.536C71.8149 52.536 72.1616 52.1253 72.1616 51.304V47.912H70.1136V47.4H72.7456V51.28C72.7456 51.872 72.6069 52.3147 72.3296 52.608C72.0576 52.9013 71.6522 53.048 71.1136 53.048ZM76.0654 53.048C75.6494 53.048 75.2494 52.9813 74.8654 52.848C74.4867 52.7093 74.1934 52.5333 73.9854 52.32L74.2174 51.864C74.4147 52.056 74.6787 52.2187 75.0094 52.352C75.3454 52.48 75.6974 52.544 76.0654 52.544C76.4174 52.544 76.7027 52.5013 76.9214 52.416C77.1454 52.3253 77.308 52.2053 77.4094 52.056C77.516 51.9067 77.5694 51.7413 77.5694 51.56C77.5694 51.3413 77.5054 51.1653 77.3774 51.032C77.2547 50.8987 77.092 50.7947 76.8894 50.72C76.6867 50.64 76.4627 50.5707 76.2174 50.512C75.972 50.4533 75.7267 50.392 75.4814 50.328C75.236 50.2587 75.0094 50.168 74.8014 50.056C74.5987 49.944 74.4334 49.7973 74.3054 49.616C74.1827 49.4293 74.1214 49.1867 74.1214 48.888C74.1214 48.6107 74.1934 48.3573 74.3374 48.128C74.4867 47.8933 74.7134 47.7067 75.0174 47.568C75.3214 47.424 75.7107 47.352 76.1854 47.352C76.5 47.352 76.812 47.3973 77.1214 47.488C77.4307 47.5733 77.6974 47.6933 77.9214 47.848L77.7214 48.32C77.4814 48.16 77.2254 48.0427 76.9534 47.968C76.6867 47.8933 76.428 47.856 76.1774 47.856C75.8414 47.856 75.564 47.9013 75.3454 47.992C75.1267 48.0827 74.964 48.2053 74.8574 48.36C74.756 48.5093 74.7054 48.68 74.7054 48.872C74.7054 49.0907 74.7667 49.2667 74.8894 49.4C75.0174 49.5333 75.1827 49.6373 75.3854 49.712C75.5934 49.7867 75.82 49.8533 76.0654 49.912C76.3107 49.9707 76.5534 50.0347 76.7934 50.104C77.0387 50.1733 77.2627 50.264 77.4654 50.376C77.6734 50.4827 77.8387 50.6267 77.9614 50.808C78.0894 50.9893 78.1534 51.2267 78.1534 51.52C78.1534 51.792 78.0787 52.0453 77.9294 52.28C77.78 52.5093 77.5507 52.696 77.2414 52.84C76.9374 52.9787 76.5454 53.048 76.0654 53.048ZM79.1355 54.168L79.4875 52.688L79.5515 53.032C79.4288 53.032 79.3248 52.992 79.2395 52.912C79.1595 52.832 79.1195 52.728 79.1195 52.6C79.1195 52.472 79.1595 52.368 79.2395 52.288C79.3248 52.208 79.4262 52.168 79.5435 52.168C79.6662 52.168 79.7648 52.2107 79.8395 52.296C79.9195 52.3813 79.9595 52.4827 79.9595 52.6C79.9595 52.6427 79.9568 52.6853 79.9515 52.728C79.9462 52.7707 79.9355 52.8187 79.9195 52.872C79.9035 52.9253 79.8822 52.9893 79.8555 53.064L79.5195 54.168H79.1355ZM83.3886 53V47.4H85.4846C85.9592 47.4 86.3672 47.4773 86.7086 47.632C87.0499 47.7813 87.3112 48 87.4926 48.288C87.6792 48.5707 87.7726 48.9147 87.7726 49.32C87.7726 49.7147 87.6792 50.056 87.4926 50.344C87.3112 50.6267 87.0499 50.8453 86.7086 51C86.3672 51.1493 85.9592 51.224 85.4846 51.224H83.7166L83.9806 50.952V53H83.3886ZM87.2126 53L85.7726 50.968H86.4126L87.8606 53H87.2126ZM83.9806 51L83.7166 50.72H85.4686C86.0286 50.72 86.4526 50.5973 86.7406 50.352C87.0339 50.1067 87.1806 49.7627 87.1806 49.32C87.1806 48.872 87.0339 48.5253 86.7406 48.28C86.4526 48.0347 86.0286 47.912 85.4686 47.912H83.7166L83.9806 47.632V51ZM90.8338 53.04C90.3965 53.04 90.0125 52.9493 89.6818 52.768C89.3511 52.5813 89.0925 52.328 88.9058 52.008C88.7191 51.6827 88.6258 51.312 88.6258 50.896C88.6258 50.48 88.7138 50.112 88.8898 49.792C89.0711 49.472 89.3165 49.2213 89.6258 49.04C89.9405 48.8533 90.2925 48.76 90.6818 48.76C91.0765 48.76 91.4258 48.8507 91.7298 49.032C92.0391 49.208 92.2818 49.4587 92.4578 49.784C92.6338 50.104 92.7218 50.4747 92.7218 50.896C92.7218 50.9227 92.7191 50.952 92.7138 50.984C92.7138 51.0107 92.7138 51.04 92.7138 51.072H89.0578V50.648H92.4098L92.1858 50.816C92.1858 50.512 92.1191 50.2427 91.9858 50.008C91.8578 49.768 91.6818 49.5813 91.4578 49.448C91.2338 49.3147 90.9751 49.248 90.6818 49.248C90.3938 49.248 90.1351 49.3147 89.9058 49.448C89.6765 49.5813 89.4978 49.768 89.3698 50.008C89.2418 50.248 89.1778 50.5227 89.1778 50.832V50.92C89.1778 51.24 89.2471 51.5227 89.3858 51.768C89.5298 52.008 89.7271 52.1973 89.9778 52.336C90.2338 52.4693 90.5245 52.536 90.8498 52.536C91.1058 52.536 91.3431 52.4907 91.5618 52.4C91.7858 52.3093 91.9778 52.1707 92.1378 51.984L92.4578 52.352C92.2711 52.576 92.0365 52.7467 91.7538 52.864C91.4765 52.9813 91.1698 53.04 90.8338 53.04ZM96.3928 53V52.072L96.3688 51.92V50.368C96.3688 50.0107 96.2674 49.736 96.0648 49.544C95.8674 49.352 95.5714 49.256 95.1768 49.256C94.9048 49.256 94.6461 49.3013 94.4008 49.392C94.1554 49.4827 93.9474 49.6027 93.7768 49.752L93.5208 49.328C93.7341 49.1467 93.9901 49.008 94.2888 48.912C94.5874 48.8107 94.9021 48.76 95.2328 48.76C95.7768 48.76 96.1954 48.896 96.4888 49.168C96.7874 49.4347 96.9368 49.8427 96.9368 50.392V53H96.3928ZM94.9448 53.04C94.6301 53.04 94.3554 52.9893 94.1208 52.888C93.8914 52.7813 93.7154 52.6373 93.5928 52.456C93.4701 52.2693 93.4088 52.056 93.4088 51.816C93.4088 51.5973 93.4594 51.4 93.5608 51.224C93.6674 51.0427 93.8381 50.8987 94.0728 50.792C94.3128 50.68 94.6328 50.624 95.0328 50.624H96.4808V51.048H95.0488C94.6434 51.048 94.3608 51.12 94.2008 51.264C94.0461 51.408 93.9688 51.5867 93.9688 51.8C93.9688 52.04 94.0621 52.232 94.2488 52.376C94.4354 52.52 94.6968 52.592 95.0328 52.592C95.3528 52.592 95.6274 52.52 95.8568 52.376C96.0914 52.2267 96.2621 52.0133 96.3688 51.736L96.4968 52.128C96.3901 52.4053 96.2034 52.6267 95.9368 52.792C95.6754 52.9573 95.3448 53.04 94.9448 53.04ZM100.224 53.04C99.8075 53.04 99.4342 52.9493 99.1035 52.768C98.7782 52.5813 98.5222 52.328 98.3355 52.008C98.1488 51.6827 98.0555 51.312 98.0555 50.896C98.0555 50.4747 98.1488 50.104 98.3355 49.784C98.5222 49.464 98.7782 49.2133 99.1035 49.032C99.4342 48.8507 99.8075 48.76 100.224 48.76C100.581 48.76 100.904 48.8293 101.192 48.968C101.48 49.1067 101.706 49.3147 101.872 49.592L101.448 49.88C101.304 49.6667 101.125 49.5093 100.912 49.408C100.698 49.3067 100.466 49.256 100.216 49.256C99.9168 49.256 99.6475 49.3253 99.4075 49.464C99.1675 49.5973 98.9782 49.7867 98.8395 50.032C98.7008 50.2773 98.6315 50.5653 98.6315 50.896C98.6315 51.2267 98.7008 51.5147 98.8395 51.76C98.9782 52.0053 99.1675 52.1973 99.4075 52.336C99.6475 52.4693 99.9168 52.536 100.216 52.536C100.466 52.536 100.698 52.4853 100.912 52.384C101.125 52.2827 101.304 52.128 101.448 51.92L101.872 52.208C101.706 52.48 101.48 52.688 101.192 52.832C100.904 52.9707 100.581 53.04 100.224 53.04ZM104.362 53.04C103.968 53.04 103.664 52.9333 103.45 52.72C103.237 52.5067 103.13 52.2053 103.13 51.816V47.872H103.698V51.784C103.698 52.0293 103.76 52.2187 103.882 52.352C104.01 52.4853 104.192 52.552 104.426 52.552C104.677 52.552 104.885 52.48 105.05 52.336L105.25 52.744C105.138 52.8453 105.002 52.92 104.842 52.968C104.688 53.016 104.528 53.04 104.362 53.04ZM102.378 49.272V48.8H104.978V49.272H102.378ZM107.004 53.048C106.69 53.048 106.394 52.9787 106.116 52.84C105.844 52.7013 105.626 52.504 105.46 52.248L105.804 51.848C105.959 52.072 106.138 52.2427 106.34 52.36C106.543 52.4773 106.767 52.536 107.012 52.536C107.706 52.536 108.052 52.1253 108.052 51.304V47.912H106.004V47.4H108.636V51.28C108.636 51.872 108.498 52.3147 108.22 52.608C107.948 52.9013 107.543 53.048 107.004 53.048ZM111.956 53.048C111.54 53.048 111.14 52.9813 110.756 52.848C110.377 52.7093 110.084 52.5333 109.876 52.32L110.108 51.864C110.305 52.056 110.569 52.2187 110.9 52.352C111.236 52.48 111.588 52.544 111.956 52.544C112.308 52.544 112.593 52.5013 112.812 52.416C113.036 52.3253 113.199 52.2053 113.3 52.056C113.407 51.9067 113.46 51.7413 113.46 51.56C113.46 51.3413 113.396 51.1653 113.268 51.032C113.145 50.8987 112.983 50.7947 112.78 50.72C112.577 50.64 112.353 50.5707 112.108 50.512C111.863 50.4533 111.617 50.392 111.372 50.328C111.127 50.2587 110.9 50.168 110.692 50.056C110.489 49.944 110.324 49.7973 110.196 49.616C110.073 49.4293 110.012 49.1867 110.012 48.888C110.012 48.6107 110.084 48.3573 110.228 48.128C110.377 47.8933 110.604 47.7067 110.908 47.568C111.212 47.424 111.601 47.352 112.076 47.352C112.391 47.352 112.703 47.3973 113.012 47.488C113.321 47.5733 113.588 47.6933 113.812 47.848L113.612 48.32C113.372 48.16 113.116 48.0427 112.844 47.968C112.577 47.8933 112.319 47.856 112.068 47.856C111.732 47.856 111.455 47.9013 111.236 47.992C111.017 48.0827 110.855 48.2053 110.748 48.36C110.647 48.5093 110.596 48.68 110.596 48.872C110.596 49.0907 110.657 49.2667 110.78 49.4C110.908 49.5333 111.073 49.6373 111.276 49.712C111.484 49.7867 111.711 49.8533 111.956 49.912C112.201 49.9707 112.444 50.0347 112.684 50.104C112.929 50.1733 113.153 50.264 113.356 50.376C113.564 50.4827 113.729 50.6267 113.852 50.808C113.98 50.9893 114.044 51.2267 114.044 51.52C114.044 51.792 113.969 52.0453 113.82 52.28C113.671 52.5093 113.441 52.696 113.132 52.84C112.828 52.9787 112.436 53.048 111.956 53.048ZM115.026 54.168L115.378 52.688L115.442 53.032C115.319 53.032 115.215 52.992 115.13 52.912C115.05 52.832 115.01 52.728 115.01 52.6C115.01 52.472 115.05 52.368 115.13 52.288C115.215 52.208 115.317 52.168 115.434 52.168C115.557 52.168 115.655 52.2107 115.73 52.296C115.81 52.3813 115.85 52.4827 115.85 52.6C115.85 52.6427 115.847 52.6853 115.842 52.728C115.837 52.7707 115.826 52.8187 115.81 52.872C115.794 52.9253 115.773 52.9893 115.746 53.064L115.41 54.168H115.026ZM14.512 63.048C14.1973 63.048 13.9013 62.9787 13.624 62.84C13.352 62.7013 13.1333 62.504 12.968 62.248L13.312 61.848C13.4667 62.072 13.6453 62.2427 13.848 62.36C14.0507 62.4773 14.2747 62.536 14.52 62.536C15.2133 62.536 15.56 62.1253 15.56 61.304V57.912H13.512V57.4H16.144V61.28C16.144 61.872 16.0053 62.3147 15.728 62.608C15.456 62.9013 15.0507 63.048 14.512 63.048ZM20.3678 63.048C19.9465 63.048 19.5545 62.9787 19.1918 62.84C18.8345 62.696 18.5225 62.496 18.2558 62.24C17.9945 61.9787 17.7891 61.6773 17.6398 61.336C17.4958 60.9893 17.4238 60.6107 17.4238 60.2C17.4238 59.7893 17.4958 59.4133 17.6398 59.072C17.7891 58.7253 17.9945 58.424 18.2558 58.168C18.5225 57.9067 18.8345 57.7067 19.1918 57.568C19.5491 57.424 19.9411 57.352 20.3678 57.352C20.7891 57.352 21.1785 57.424 21.5358 57.568C21.8931 57.7067 22.2025 57.904 22.4638 58.16C22.7305 58.416 22.9358 58.7173 23.0798 59.064C23.2291 59.4107 23.3038 59.7893 23.3038 60.2C23.3038 60.6107 23.2291 60.9893 23.0798 61.336C22.9358 61.6827 22.7305 61.984 22.4638 62.24C22.2025 62.496 21.8931 62.696 21.5358 62.84C21.1785 62.9787 20.7891 63.048 20.3678 63.048ZM22.1998 64.112C22.0291 64.112 21.8638 64.0907 21.7038 64.048C21.5438 64.0053 21.3811 63.936 21.2158 63.84C21.0558 63.7493 20.8905 63.6293 20.7198 63.48C20.5491 63.3307 20.3625 63.1493 20.1598 62.936L20.8078 62.776C20.9731 62.9733 21.1331 63.136 21.2878 63.264C21.4478 63.392 21.6025 63.4853 21.7518 63.544C21.9065 63.608 22.0585 63.64 22.2078 63.64C22.6238 63.64 22.9785 63.4693 23.2718 63.128L23.5598 63.472C23.2078 63.8987 22.7545 64.112 22.1998 64.112ZM20.3678 62.52C20.7038 62.52 21.0131 62.464 21.2958 62.352C21.5838 62.2347 21.8318 62.0693 22.0398 61.856C22.2531 61.6427 22.4185 61.3973 22.5358 61.12C22.6531 60.8373 22.7118 60.5307 22.7118 60.2C22.7118 59.864 22.6531 59.5573 22.5358 59.28C22.4185 58.9973 22.2531 58.752 22.0398 58.544C21.8318 58.3307 21.5838 58.168 21.2958 58.056C21.0131 57.9387 20.7038 57.88 20.3678 57.88C20.0318 57.88 19.7198 57.9387 19.4318 58.056C19.1438 58.168 18.8931 58.3307 18.6798 58.544C18.4718 58.752 18.3065 58.9973 18.1838 59.28C18.0665 59.5573 18.0078 59.864 18.0078 60.2C18.0078 60.5307 18.0665 60.8373 18.1838 61.12C18.3065 61.3973 18.4718 61.6427 18.6798 61.856C18.8931 62.0693 19.1438 62.2347 19.4318 62.352C19.7198 62.464 20.0318 62.52 20.3678 62.52ZM26.2468 63.04C25.8894 63.04 25.5774 62.9733 25.3108 62.84C25.0441 62.7067 24.8361 62.5067 24.6868 62.24C24.5428 61.9733 24.4708 61.64 24.4708 61.24V58.8H25.0388V61.176C25.0388 61.624 25.1481 61.9627 25.3668 62.192C25.5908 62.416 25.9028 62.528 26.3028 62.528C26.5961 62.528 26.8494 62.4693 27.0628 62.352C27.2814 62.2293 27.4468 62.0533 27.5588 61.824C27.6761 61.5947 27.7348 61.32 27.7348 61V58.8H28.3028V63H27.7587V61.848L27.8468 62.056C27.7134 62.3653 27.5054 62.608 27.2228 62.784C26.9454 62.9547 26.6201 63.04 26.2468 63.04ZM31.6698 63.04C31.2324 63.04 30.8484 62.9493 30.5178 62.768C30.1871 62.5813 29.9284 62.328 29.7418 62.008C29.5551 61.6827 29.4618 61.312 29.4618 60.896C29.4618 60.48 29.5498 60.112 29.7258 59.792C29.9071 59.472 30.1524 59.2213 30.4618 59.04C30.7764 58.8533 31.1284 58.76 31.5178 58.76C31.9124 58.76 32.2618 58.8507 32.5658 59.032C32.8751 59.208 33.1178 59.4587 33.2938 59.784C33.4698 60.104 33.5578 60.4747 33.5578 60.896C33.5578 60.9227 33.5551 60.952 33.5498 60.984C33.5498 61.0107 33.5498 61.04 33.5498 61.072H29.8938V60.648H33.2458L33.0218 60.816C33.0218 60.512 32.9551 60.2427 32.8218 60.008C32.6938 59.768 32.5178 59.5813 32.2938 59.448C32.0698 59.3147 31.8111 59.248 31.5178 59.248C31.2298 59.248 30.9711 59.3147 30.7418 59.448C30.5124 59.5813 30.3338 59.768 30.2058 60.008C30.0778 60.248 30.0138 60.5227 30.0138 60.832V60.92C30.0138 61.24 30.0831 61.5227 30.2218 61.768C30.3658 62.008 30.5631 62.1973 30.8138 62.336C31.0698 62.4693 31.3604 62.536 31.6858 62.536C31.9418 62.536 32.1791 62.4907 32.3978 62.4C32.6218 62.3093 32.8138 62.1707 32.9738 61.984L33.2938 62.352C33.1071 62.576 32.8724 62.7467 32.5898 62.864C32.3124 62.9813 32.0058 63.04 31.6698 63.04ZM34.7139 63V58.8H35.2579V59.944L35.2019 59.744C35.3192 59.424 35.5165 59.1813 35.7939 59.016C36.0712 58.8453 36.4152 58.76 36.8259 58.76V59.312C36.8045 59.312 36.7832 59.312 36.7619 59.312C36.7405 59.3067 36.7192 59.304 36.6979 59.304C36.2552 59.304 35.9085 59.44 35.6579 59.712C35.4072 59.9787 35.2819 60.36 35.2819 60.856V63H34.7139ZM38.074 64.592C37.8767 64.592 37.6873 64.56 37.506 64.496C37.33 64.432 37.178 64.336 37.05 64.208L37.314 63.784C37.4207 63.8853 37.5353 63.9627 37.658 64.016C37.786 64.0747 37.9273 64.104 38.082 64.104C38.2687 64.104 38.4287 64.0507 38.562 63.944C38.7007 63.8427 38.8313 63.6613 38.954 63.4L39.226 62.784L39.29 62.696L41.018 58.8H41.578L39.474 63.504C39.3567 63.776 39.226 63.992 39.082 64.152C38.9433 64.312 38.7913 64.424 38.626 64.488C38.4607 64.5573 38.2767 64.592 38.074 64.592ZM39.194 63.12L37.258 58.8H37.85L39.562 62.656L39.194 63.12ZM41.7605 64.168L42.1125 62.688L42.1765 63.032C42.0538 63.032 41.9498 62.992 41.8645 62.912C41.7845 62.832 41.7445 62.728 41.7445 62.6C41.7445 62.472 41.7845 62.368 41.8645 62.288C41.9498 62.208 42.0512 62.168 42.1685 62.168C42.2912 62.168 42.3898 62.2107 42.4645 62.296C42.5445 62.3813 42.5845 62.4827 42.5845 62.6C42.5845 62.6427 42.5818 62.6853 42.5765 62.728C42.5712 62.7707 42.5605 62.8187 42.5445 62.872C42.5285 62.9253 42.5072 62.9893 42.4805 63.064L42.1445 64.168H41.7605ZM47.1016 63V57.912H45.1336V57.4H49.6616V57.912H47.6936V63H47.1016ZM52.8849 63V62.072L52.8609 61.92V60.368C52.8609 60.0107 52.7596 59.736 52.5569 59.544C52.3596 59.352 52.0636 59.256 51.6689 59.256C51.3969 59.256 51.1383 59.3013 50.8929 59.392C50.6476 59.4827 50.4396 59.6027 50.2689 59.752L50.0129 59.328C50.2263 59.1467 50.4823 59.008 50.7809 58.912C51.0796 58.8107 51.3943 58.76 51.7249 58.76C52.2689 58.76 52.6876 58.896 52.9809 59.168C53.2796 59.4347 53.4289 59.8427 53.4289 60.392V63H52.8849ZM51.4369 63.04C51.1223 63.04 50.8476 62.9893 50.6129 62.888C50.3836 62.7813 50.2076 62.6373 50.0849 62.456C49.9623 62.2693 49.9009 62.056 49.9009 61.816C49.9009 61.5973 49.9516 61.4 50.0529 61.224C50.1596 61.0427 50.3303 60.8987 50.5649 60.792C50.8049 60.68 51.1249 60.624 51.5249 60.624H52.9729V61.048H51.5409C51.1356 61.048 50.8529 61.12 50.6929 61.264C50.5383 61.408 50.4609 61.5867 50.4609 61.8C50.4609 62.04 50.5543 62.232 50.7409 62.376C50.9276 62.52 51.1889 62.592 51.5249 62.592C51.8449 62.592 52.1196 62.52 52.3489 62.376C52.5836 62.2267 52.7543 62.0133 52.8609 61.736L52.9889 62.128C52.8823 62.4053 52.6956 62.6267 52.4289 62.792C52.1676 62.9573 51.8369 63.04 51.4369 63.04ZM54.9717 63V58.8H55.5397V63H54.9717ZM55.2597 57.872C55.1424 57.872 55.0437 57.832 54.9637 57.752C54.8837 57.672 54.8437 57.576 54.8437 57.464C54.8437 57.352 54.8837 57.2587 54.9637 57.184C55.0437 57.104 55.1424 57.064 55.2597 57.064C55.377 57.064 55.4757 57.1013 55.5557 57.176C55.6357 57.2507 55.6757 57.344 55.6757 57.456C55.6757 57.5733 55.6357 57.672 55.5557 57.752C55.481 57.832 55.3824 57.872 55.2597 57.872ZM57.1201 63V57.064H57.6881V63H57.1201ZM60.1246 63L58.5406 58.8H59.0846L60.5246 62.696H60.2766L61.7566 58.8H62.2446L63.7086 62.696H63.4606L64.9246 58.8H65.4446L63.8526 63H63.3166L61.9086 59.336H62.0766L60.6606 63H60.1246ZM66.2998 63V58.8H66.8678V63H66.2998ZM66.5878 57.872C66.4705 57.872 66.3718 57.832 66.2918 57.752C66.2118 57.672 66.1718 57.576 66.1718 57.464C66.1718 57.352 66.2118 57.2587 66.2918 57.184C66.3718 57.104 66.4705 57.064 66.5878 57.064C66.7051 57.064 66.8038 57.1013 66.8838 57.176C66.9638 57.2507 67.0038 57.344 67.0038 57.456C67.0038 57.5733 66.9638 57.672 66.8838 57.752C66.8091 57.832 66.7105 57.872 66.5878 57.872ZM70.5923 58.76C70.9336 58.76 71.2323 58.8267 71.4883 58.96C71.7496 59.088 71.9523 59.2853 72.0963 59.552C72.2456 59.8187 72.3203 60.1547 72.3203 60.56V63H71.7523V60.616C71.7523 60.1733 71.6403 59.84 71.4163 59.616C71.1976 59.3867 70.8883 59.272 70.4883 59.272C70.1896 59.272 69.9283 59.3333 69.7043 59.456C69.4856 59.5733 69.3149 59.7467 69.1923 59.976C69.0749 60.2 69.0163 60.472 69.0163 60.792V63H68.4483V58.8H68.9923V59.952L68.9043 59.736C69.0376 59.432 69.2509 59.1947 69.5443 59.024C69.8376 58.848 70.1869 58.76 70.5923 58.76ZM75.5265 63.04C75.1265 63.04 74.7665 62.9493 74.4465 62.768C74.1318 62.5867 73.8838 62.336 73.7025 62.016C73.5212 61.6907 73.4305 61.3173 73.4305 60.896C73.4305 60.4693 73.5212 60.096 73.7025 59.776C73.8838 59.456 74.1318 59.208 74.4465 59.032C74.7665 58.8507 75.1265 58.76 75.5265 58.76C75.8945 58.76 76.2225 58.8427 76.5105 59.008C76.8038 59.1733 77.0358 59.416 77.2065 59.736C77.3825 60.0507 77.4705 60.4373 77.4705 60.896C77.4705 61.3493 77.3852 61.736 77.2145 62.056C77.0438 62.376 76.8118 62.6213 76.5185 62.792C76.2305 62.9573 75.8998 63.04 75.5265 63.04ZM75.5665 62.536C75.8652 62.536 76.1318 62.4693 76.3665 62.336C76.6065 62.1973 76.7932 62.0053 76.9265 61.76C77.0652 61.5093 77.1345 61.2213 77.1345 60.896C77.1345 60.5653 77.0652 60.2773 76.9265 60.032C76.7932 59.7867 76.6065 59.5973 76.3665 59.464C76.1318 59.3253 75.8652 59.256 75.5665 59.256C75.2732 59.256 75.0092 59.3253 74.7745 59.464C74.5398 59.5973 74.3532 59.7867 74.2145 60.032C74.0758 60.2773 74.0065 60.5653 74.0065 60.896C74.0065 61.2213 74.0758 61.5093 74.2145 61.76C74.3532 62.0053 74.5398 62.1973 74.7745 62.336C75.0092 62.4693 75.2732 62.536 75.5665 62.536ZM77.1505 63V61.736L77.2065 60.888L77.1265 60.04V57.064H77.6945V63H77.1505ZM81.8284 63.048C81.407 63.048 81.0177 62.9787 80.6604 62.84C80.303 62.696 79.9937 62.496 79.7324 62.24C79.471 61.984 79.2657 61.6827 79.1164 61.336C78.9724 60.9893 78.9004 60.6107 78.9004 60.2C78.9004 59.7893 78.9724 59.4107 79.1164 59.064C79.2657 58.7173 79.471 58.416 79.7324 58.16C79.999 57.904 80.311 57.7067 80.6684 57.568C81.0257 57.424 81.415 57.352 81.8364 57.352C82.2417 57.352 82.623 57.4213 82.9804 57.56C83.3377 57.6933 83.639 57.896 83.8844 58.168L83.5084 58.544C83.279 58.3093 83.0257 58.1413 82.7484 58.04C82.471 57.9333 82.1724 57.88 81.8524 57.88C81.5164 57.88 81.2044 57.9387 80.9164 58.056C80.6284 58.168 80.3777 58.3307 80.1644 58.544C79.951 58.752 79.783 58.9973 79.6604 59.28C79.543 59.5573 79.4844 59.864 79.4844 60.2C79.4844 60.536 79.543 60.8453 79.6604 61.128C79.783 61.4053 79.951 61.6507 80.1644 61.864C80.3777 62.072 80.6284 62.2347 80.9164 62.352C81.2044 62.464 81.5164 62.52 81.8524 62.52C82.1724 62.52 82.471 62.4667 82.7484 62.36C83.0257 62.2533 83.279 62.0827 83.5084 61.848L83.8844 62.224C83.639 62.496 83.3377 62.7013 82.9804 62.84C82.623 62.9787 82.239 63.048 81.8284 63.048ZM85.9981 63.04C85.6515 63.04 85.3235 62.992 85.0141 62.896C84.7048 62.7947 84.4621 62.6693 84.2861 62.52L84.5421 62.072C84.7128 62.2 84.9315 62.312 85.1981 62.408C85.4648 62.4987 85.7448 62.544 86.0381 62.544C86.4381 62.544 86.7261 62.4827 86.9021 62.36C87.0781 62.232 87.1661 62.064 87.1661 61.856C87.1661 61.7013 87.1155 61.5813 87.0141 61.496C86.9181 61.4053 86.7901 61.3387 86.6301 61.296C86.4701 61.248 86.2915 61.208 86.0941 61.176C85.8968 61.144 85.6995 61.1067 85.5021 61.064C85.3101 61.0213 85.1341 60.96 84.9741 60.88C84.8141 60.7947 84.6835 60.68 84.5821 60.536C84.4861 60.392 84.4381 60.2 84.4381 59.96C84.4381 59.7307 84.5021 59.5253 84.6301 59.344C84.7581 59.1627 84.9448 59.0213 85.1901 58.92C85.4408 58.8133 85.7448 58.76 86.1021 58.76C86.3741 58.76 86.6461 58.7973 86.9181 58.872C87.1901 58.9413 87.4141 59.0347 87.5901 59.152L87.3421 59.608C87.1555 59.48 86.9555 59.3893 86.7421 59.336C86.5288 59.2773 86.3155 59.248 86.1021 59.248C85.7235 59.248 85.4435 59.3147 85.2621 59.448C85.0861 59.576 84.9981 59.7413 84.9981 59.944C84.9981 60.104 85.0461 60.2293 85.1421 60.32C85.2435 60.4107 85.3741 60.4827 85.5341 60.536C85.6995 60.584 85.8781 60.624 86.0701 60.656C86.2675 60.688 86.4621 60.728 86.6541 60.776C86.8515 60.8187 87.0301 60.88 87.1901 60.96C87.3555 61.0347 87.4861 61.144 87.5821 61.288C87.6835 61.4267 87.7341 61.6107 87.7341 61.84C87.7341 62.0853 87.6648 62.2987 87.5261 62.48C87.3928 62.656 87.1955 62.7947 86.9341 62.896C86.6781 62.992 86.3661 63.04 85.9981 63.04ZM89.9044 63.04C89.5577 63.04 89.2297 62.992 88.9204 62.896C88.611 62.7947 88.3684 62.6693 88.1924 62.52L88.4484 62.072C88.619 62.2 88.8377 62.312 89.1044 62.408C89.371 62.4987 89.651 62.544 89.9444 62.544C90.3444 62.544 90.6324 62.4827 90.8084 62.36C90.9844 62.232 91.0724 62.064 91.0724 61.856C91.0724 61.7013 91.0217 61.5813 90.9204 61.496C90.8244 61.4053 90.6964 61.3387 90.5364 61.296C90.3764 61.248 90.1977 61.208 90.0004 61.176C89.803 61.144 89.6057 61.1067 89.4084 61.064C89.2164 61.0213 89.0404 60.96 88.8804 60.88C88.7204 60.7947 88.5897 60.68 88.4884 60.536C88.3924 60.392 88.3444 60.2 88.3444 59.96C88.3444 59.7307 88.4084 59.5253 88.5364 59.344C88.6644 59.1627 88.851 59.0213 89.0964 58.92C89.347 58.8133 89.651 58.76 90.0084 58.76C90.2804 58.76 90.5524 58.7973 90.8244 58.872C91.0964 58.9413 91.3204 59.0347 91.4964 59.152L91.2484 59.608C91.0617 59.48 90.8617 59.3893 90.6484 59.336C90.435 59.2773 90.2217 59.248 90.0084 59.248C89.6297 59.248 89.3497 59.3147 89.1684 59.448C88.9924 59.576 88.9044 59.7413 88.9044 59.944C88.9044 60.104 88.9524 60.2293 89.0484 60.32C89.1497 60.4107 89.2804 60.4827 89.4404 60.536C89.6057 60.584 89.7844 60.624 89.9764 60.656C90.1737 60.688 90.3684 60.728 90.5604 60.776C90.7577 60.8187 90.9364 60.88 91.0964 60.96C91.2617 61.0347 91.3924 61.144 91.4884 61.288C91.5897 61.4267 91.6404 61.6107 91.6404 61.84C91.6404 62.0853 91.571 62.2987 91.4324 62.48C91.299 62.656 91.1017 62.7947 90.8404 62.896C90.5844 62.992 90.2724 63.04 89.9044 63.04ZM92.3386 64.168L92.6906 62.688L92.7546 63.032C92.632 63.032 92.528 62.992 92.4426 62.912C92.3626 62.832 92.3226 62.728 92.3226 62.6C92.3226 62.472 92.3626 62.368 92.4426 62.288C92.528 62.208 92.6293 62.168 92.7466 62.168C92.8693 62.168 92.968 62.2107 93.0426 62.296C93.1226 62.3813 93.1626 62.4827 93.1626 62.6C93.1626 62.6427 93.16 62.6853 93.1546 62.728C93.1493 62.7707 93.1386 62.8187 93.1226 62.872C93.1066 62.9253 93.0853 62.9893 93.0586 63.064L92.7226 64.168H92.3386Z" fill="#CBC3C3"/>
</svg>
