<svg width="121" height="83" viewBox="0 0 121 83" fill="none" xmlns="http://www.w3.org/2000/svg">
<path d="M4.04 6.856L0.56 5.464V4.936L4.04 3.544V4.04L0.768 5.328V5.072L4.04 6.36V6.856ZM7.53756 3.76C7.8789 3.76 8.17756 3.82667 8.43356 3.96C8.6949 4.088 8.89756 4.28533 9.04156 4.552C9.1909 4.81867 9.26556 5.15467 9.26556 5.56V8H8.69756V5.616C8.69756 5.17333 8.58556 4.84 8.36156 4.616C8.1429 4.38667 7.83356 4.272 7.43356 4.272C7.1349 4.272 6.87356 4.33333 6.64956 4.456C6.4309 4.57333 6.26023 4.74667 6.13756 4.976C6.02023 5.2 5.96156 5.472 5.96156 5.792V8H5.39356V2.064H5.96156V4.952L5.84956 4.736C5.9829 4.432 6.19623 4.19467 6.48956 4.024C6.7829 3.848 7.13223 3.76 7.53756 3.76ZM12.0958 8.048C11.6905 8.048 11.3065 7.984 10.9438 7.856C10.5865 7.72267 10.2985 7.54667 10.0798 7.328L10.3598 6.872C10.5411 7.05867 10.7838 7.21333 11.0878 7.336C11.3971 7.45867 11.7331 7.52 12.0958 7.52C12.5598 7.52 12.9145 7.41867 13.1598 7.216C13.4105 7.01333 13.5358 6.74133 13.5358 6.4C13.5358 6.05867 13.4131 5.78667 13.1678 5.584C12.9278 5.38133 12.5465 5.28 12.0238 5.28H11.6238V4.856L13.3518 2.688L13.4318 2.912H10.3118V2.4H13.9118V2.808L12.1838 4.976L11.9038 4.792H12.1198C12.7918 4.792 13.2931 4.94133 13.6238 5.24C13.9598 5.53867 14.1278 5.92267 14.1278 6.392C14.1278 6.70667 14.0531 6.98933 13.9038 7.24C13.7545 7.49067 13.5278 7.688 13.2238 7.832C12.9251 7.976 12.5491 8.048 12.0958 8.048ZM15.0834 6.856V6.36L18.3554 5.072V5.328L15.0834 4.04V3.544L18.5634 4.936V5.464L15.0834 6.856Z" fill="#4C4C4C"/>
<path d="M4.04 79.856L0.56 78.464V77.936L4.04 76.544V77.04L0.768 78.328V78.072L4.04 79.36V79.856ZM4.40156 81.8L7.04156 74.264H7.56156L4.92156 81.8H4.40156ZM10.2173 76.76C10.5586 76.76 10.8573 76.8267 11.1133 76.96C11.3746 77.088 11.5773 77.2853 11.7213 77.552C11.8706 77.8187 11.9453 78.1547 11.9453 78.56V81H11.3773V78.616C11.3773 78.1733 11.2653 77.84 11.0413 77.616C10.8226 77.3867 10.5133 77.272 10.1133 77.272C9.81458 77.272 9.55325 77.3333 9.32925 77.456C9.11058 77.5733 8.93992 77.7467 8.81725 77.976C8.69992 78.2 8.64125 78.472 8.64125 78.792V81H8.07325V75.064H8.64125V77.952L8.52925 77.736C8.66258 77.432 8.87592 77.1947 9.16925 77.024C9.46258 76.848 9.81192 76.76 10.2173 76.76ZM14.7755 81.048C14.3702 81.048 13.9862 80.984 13.6235 80.856C13.2662 80.7227 12.9782 80.5467 12.7595 80.328L13.0395 79.872C13.2208 80.0587 13.4635 80.2133 13.7675 80.336C14.0768 80.4587 14.4128 80.52 14.7755 80.52C15.2395 80.52 15.5942 80.4187 15.8395 80.216C16.0902 80.0133 16.2155 79.7413 16.2155 79.4C16.2155 79.0587 16.0928 78.7867 15.8475 78.584C15.6075 78.3813 15.2262 78.28 14.7035 78.28H14.3035V77.856L16.0315 75.688L16.1115 75.912H12.9915V75.4H16.5915V75.808L14.8635 77.976L14.5835 77.792H14.7995C15.4715 77.792 15.9728 77.9413 16.3035 78.24C16.6395 78.5387 16.8075 78.9227 16.8075 79.392C16.8075 79.7067 16.7328 79.9893 16.5835 80.24C16.4342 80.4907 16.2075 80.688 15.9035 80.832C15.6048 80.976 15.2288 81.048 14.7755 81.048ZM17.7631 79.856V79.36L21.0351 78.072V78.328L17.7631 77.04V76.544L21.2431 77.936V78.464L17.7631 79.856Z" fill="#6D6D6D"/>
<line x1="6.5" y1="10" x2="6.5" y2="70" stroke="#7C7C7C"/>
<path d="M18.008 31.4H18.592V37H18.008V31.4ZM14.504 37H13.912V31.4H14.504V37ZM18.064 34.416H14.44V33.896H18.064V34.416ZM22.9318 37V36.072L22.9078 35.92V34.368C22.9078 34.0107 22.8065 33.736 22.6038 33.544C22.4065 33.352 22.1105 33.256 21.7158 33.256C21.4438 33.256 21.1851 33.3013 20.9398 33.392C20.6945 33.4827 20.4865 33.6027 20.3158 33.752L20.0598 33.328C20.2731 33.1467 20.5291 33.008 20.8278 32.912C21.1265 32.8107 21.4411 32.76 21.7718 32.76C22.3158 32.76 22.7345 32.896 23.0278 33.168C23.3265 33.4347 23.4758 33.8427 23.4758 34.392V37H22.9318ZM21.4838 37.04C21.1691 37.04 20.8945 36.9893 20.6598 36.888C20.4305 36.7813 20.2545 36.6373 20.1318 36.456C20.0091 36.2693 19.9478 36.056 19.9478 35.816C19.9478 35.5973 19.9985 35.4 20.0998 35.224C20.2065 35.0427 20.3771 34.8987 20.6118 34.792C20.8518 34.68 21.1718 34.624 21.5718 34.624H23.0198V35.048H21.5878C21.1825 35.048 20.8998 35.12 20.7398 35.264C20.5851 35.408 20.5078 35.5867 20.5078 35.8C20.5078 36.04 20.6011 36.232 20.7878 36.376C20.9745 36.52 21.2358 36.592 21.5718 36.592C21.8918 36.592 22.1665 36.52 22.3958 36.376C22.6305 36.2267 22.8011 36.0133 22.9078 35.736L23.0358 36.128C22.9291 36.4053 22.7425 36.6267 22.4758 36.792C22.2145 36.9573 21.8838 37.04 21.4838 37.04ZM26.1466 37.04C25.7999 37.04 25.4719 36.992 25.1626 36.896C24.8532 36.7947 24.6106 36.6693 24.4346 36.52L24.6906 36.072C24.8612 36.2 25.0799 36.312 25.3466 36.408C25.6132 36.4987 25.8932 36.544 26.1866 36.544C26.5866 36.544 26.8746 36.4827 27.0506 36.36C27.2266 36.232 27.3146 36.064 27.3146 35.856C27.3146 35.7013 27.2639 35.5813 27.1626 35.496C27.0666 35.4053 26.9386 35.3387 26.7786 35.296C26.6186 35.248 26.4399 35.208 26.2426 35.176C26.0452 35.144 25.8479 35.1067 25.6506 35.064C25.4586 35.0213 25.2826 34.96 25.1226 34.88C24.9626 34.7947 24.8319 34.68 24.7306 34.536C24.6346 34.392 24.5866 34.2 24.5866 33.96C24.5866 33.7307 24.6506 33.5253 24.7786 33.344C24.9066 33.1627 25.0932 33.0213 25.3386 32.92C25.5892 32.8133 25.8932 32.76 26.2506 32.76C26.5226 32.76 26.7946 32.7973 27.0666 32.872C27.3386 32.9413 27.5626 33.0347 27.7386 33.152L27.4906 33.608C27.3039 33.48 27.1039 33.3893 26.8906 33.336C26.6772 33.2773 26.4639 33.248 26.2506 33.248C25.8719 33.248 25.5919 33.3147 25.4106 33.448C25.2346 33.576 25.1466 33.7413 25.1466 33.944C25.1466 34.104 25.1946 34.2293 25.2906 34.32C25.3919 34.4107 25.5226 34.4827 25.6826 34.536C25.8479 34.584 26.0266 34.624 26.2186 34.656C26.4159 34.688 26.6106 34.728 26.8026 34.776C26.9999 34.8187 27.1786 34.88 27.3386 34.96C27.5039 35.0347 27.6346 35.144 27.7306 35.288C27.8319 35.4267 27.8826 35.6107 27.8826 35.84C27.8826 36.0853 27.8132 36.2987 27.6746 36.48C27.5412 36.656 27.3439 36.7947 27.0826 36.896C26.8266 36.992 26.5146 37.04 26.1466 37.04ZM32.8026 37.04C32.3652 37.04 31.9812 36.9493 31.6506 36.768C31.3199 36.5813 31.0612 36.328 30.8746 36.008C30.6879 35.6827 30.5946 35.312 30.5946 34.896C30.5946 34.48 30.6826 34.112 30.8586 33.792C31.0399 33.472 31.2852 33.2213 31.5946 33.04C31.9092 32.8533 32.2612 32.76 32.6506 32.76C33.0452 32.76 33.3946 32.8507 33.6986 33.032C34.0079 33.208 34.2506 33.4587 34.4266 33.784C34.6026 34.104 34.6906 34.4747 34.6906 34.896C34.6906 34.9227 34.6879 34.952 34.6826 34.984C34.6826 35.0107 34.6826 35.04 34.6826 35.072H31.0266V34.648H34.3786L34.1546 34.816C34.1546 34.512 34.0879 34.2427 33.9546 34.008C33.8266 33.768 33.6506 33.5813 33.4266 33.448C33.2026 33.3147 32.9439 33.248 32.6506 33.248C32.3626 33.248 32.1039 33.3147 31.8746 33.448C31.6452 33.5813 31.4666 33.768 31.3386 34.008C31.2106 34.248 31.1466 34.5227 31.1466 34.832V34.92C31.1466 35.24 31.2159 35.5227 31.3546 35.768C31.4986 36.008 31.6959 36.1973 31.9466 36.336C32.2026 36.4693 32.4932 36.536 32.8186 36.536C33.0746 36.536 33.3119 36.4907 33.5306 36.4C33.7546 36.3093 33.9466 36.1707 34.1066 35.984L34.4266 36.352C34.2399 36.576 34.0052 36.7467 33.7226 36.864C33.4452 36.9813 33.1386 37.04 32.8026 37.04ZM35.0895 37L36.8655 34.696L36.8575 34.976L35.1695 32.8H35.8095L37.1935 34.6L36.9535 34.592L38.3375 32.8H38.9615L37.2575 35L37.2655 34.696L39.0575 37H38.4095L36.9455 35.08L37.1695 35.112L35.7295 37H35.0895ZM42.1709 37.04C41.8083 37.04 41.4803 36.9573 41.1869 36.792C40.8936 36.6213 40.6589 36.3787 40.4829 36.064C40.3123 35.744 40.2269 35.3547 40.2269 34.896C40.2269 34.4373 40.3123 34.0507 40.4829 33.736C40.6536 33.416 40.8856 33.1733 41.1789 33.008C41.4723 32.8427 41.8029 32.76 42.1709 32.76C42.5709 32.76 42.9283 32.8507 43.2429 33.032C43.5629 33.208 43.8136 33.4587 43.9949 33.784C44.1763 34.104 44.2669 34.4747 44.2669 34.896C44.2669 35.3227 44.1763 35.696 43.9949 36.016C43.8136 36.336 43.5629 36.5867 43.2429 36.768C42.9283 36.9493 42.5709 37.04 42.1709 37.04ZM40.0029 38.552V32.8H40.5469V34.064L40.4909 34.904L40.5709 35.752V38.552H40.0029ZM42.1309 36.536C42.4296 36.536 42.6963 36.4693 42.9309 36.336C43.1656 36.1973 43.3523 36.0053 43.4909 35.76C43.6296 35.5093 43.6989 35.2213 43.6989 34.896C43.6989 34.5707 43.6296 34.2853 43.4909 34.04C43.3523 33.7947 43.1656 33.6027 42.9309 33.464C42.6963 33.3253 42.4296 33.256 42.1309 33.256C41.8323 33.256 41.5629 33.3253 41.3229 33.464C41.0883 33.6027 40.9016 33.7947 40.7629 34.04C40.6296 34.2853 40.5629 34.5707 40.5629 34.896C40.5629 35.2213 40.6296 35.5093 40.7629 35.76C40.9016 36.0053 41.0883 36.1973 41.3229 36.336C41.5629 36.4693 41.8323 36.536 42.1309 36.536ZM47.2088 37.04C46.7715 37.04 46.3875 36.9493 46.0568 36.768C45.7261 36.5813 45.4675 36.328 45.2808 36.008C45.0941 35.6827 45.0008 35.312 45.0008 34.896C45.0008 34.48 45.0888 34.112 45.2648 33.792C45.4461 33.472 45.6915 33.2213 46.0008 33.04C46.3155 32.8533 46.6675 32.76 47.0568 32.76C47.4515 32.76 47.8008 32.8507 48.1048 33.032C48.4141 33.208 48.6568 33.4587 48.8328 33.784C49.0088 34.104 49.0968 34.4747 49.0968 34.896C49.0968 34.9227 49.0941 34.952 49.0888 34.984C49.0888 35.0107 49.0888 35.04 49.0888 35.072H45.4328V34.648H48.7848L48.5608 34.816C48.5608 34.512 48.4941 34.2427 48.3608 34.008C48.2328 33.768 48.0568 33.5813 47.8328 33.448C47.6088 33.3147 47.3501 33.248 47.0568 33.248C46.7688 33.248 46.5101 33.3147 46.2808 33.448C46.0515 33.5813 45.8728 33.768 45.7448 34.008C45.6168 34.248 45.5528 34.5227 45.5528 34.832V34.92C45.5528 35.24 45.6221 35.5227 45.7608 35.768C45.9048 36.008 46.1021 36.1973 46.3528 36.336C46.6088 36.4693 46.8995 36.536 47.2248 36.536C47.4808 36.536 47.7181 36.4907 47.9368 36.4C48.1608 36.3093 48.3528 36.1707 48.5128 35.984L48.8328 36.352C48.6461 36.576 48.4115 36.7467 48.1288 36.864C47.8515 36.9813 47.5448 37.04 47.2088 37.04ZM50.2529 37V32.8H50.7969V33.944L50.7409 33.744C50.8583 33.424 51.0556 33.1813 51.3329 33.016C51.6103 32.8453 51.9543 32.76 52.3649 32.76V33.312C52.3436 33.312 52.3223 33.312 52.3009 33.312C52.2796 33.3067 52.2583 33.304 52.2369 33.304C51.7943 33.304 51.4476 33.44 51.1969 33.712C50.9463 33.9787 50.8209 34.36 50.8209 34.856V37H50.2529ZM53.4014 37V32.8H53.9694V37H53.4014ZM53.6894 31.872C53.572 31.872 53.4734 31.832 53.3934 31.752C53.3134 31.672 53.2734 31.576 53.2734 31.464C53.2734 31.352 53.3134 31.2587 53.3934 31.184C53.4734 31.104 53.572 31.064 53.6894 31.064C53.8067 31.064 53.9054 31.1013 53.9854 31.176C54.0654 31.2507 54.1054 31.344 54.1054 31.456C54.1054 31.5733 54.0654 31.672 53.9854 31.752C53.9107 31.832 53.812 31.872 53.6894 31.872ZM57.3338 37.04C56.8965 37.04 56.5125 36.9493 56.1818 36.768C55.8511 36.5813 55.5925 36.328 55.4058 36.008C55.2191 35.6827 55.1258 35.312 55.1258 34.896C55.1258 34.48 55.2138 34.112 55.3898 33.792C55.5711 33.472 55.8165 33.2213 56.1258 33.04C56.4405 32.8533 56.7925 32.76 57.1818 32.76C57.5765 32.76 57.9258 32.8507 58.2298 33.032C58.5391 33.208 58.7818 33.4587 58.9578 33.784C59.1338 34.104 59.2218 34.4747 59.2218 34.896C59.2218 34.9227 59.2191 34.952 59.2138 34.984C59.2138 35.0107 59.2138 35.04 59.2138 35.072H55.5578V34.648H58.9098L58.6858 34.816C58.6858 34.512 58.6191 34.2427 58.4858 34.008C58.3578 33.768 58.1818 33.5813 57.9578 33.448C57.7338 33.3147 57.4751 33.248 57.1818 33.248C56.8938 33.248 56.6351 33.3147 56.4058 33.448C56.1765 33.5813 55.9978 33.768 55.8698 34.008C55.7418 34.248 55.6778 34.5227 55.6778 34.832V34.92C55.6778 35.24 55.7471 35.5227 55.8858 35.768C56.0298 36.008 56.2271 36.1973 56.4778 36.336C56.7338 36.4693 57.0245 36.536 57.3498 36.536C57.6058 36.536 57.8431 36.4907 58.0618 36.4C58.2858 36.3093 58.4778 36.1707 58.6378 35.984L58.9578 36.352C58.7711 36.576 58.5365 36.7467 58.2538 36.864C57.9765 36.9813 57.6698 37.04 57.3338 37.04ZM62.5219 32.76C62.8633 32.76 63.1619 32.8267 63.4179 32.96C63.6793 33.088 63.8819 33.2853 64.0259 33.552C64.1753 33.8187 64.2499 34.1547 64.2499 34.56V37H63.6819V34.616C63.6819 34.1733 63.5699 33.84 63.3459 33.616C63.1273 33.3867 62.8179 33.272 62.4179 33.272C62.1193 33.272 61.8579 33.3333 61.6339 33.456C61.4153 33.5733 61.2446 33.7467 61.1219 33.976C61.0046 34.2 60.9459 34.472 60.9459 34.792V37H60.3779V32.8H60.9219V33.952L60.8339 33.736C60.9673 33.432 61.1806 33.1947 61.4739 33.024C61.7673 32.848 62.1166 32.76 62.5219 32.76ZM67.5282 37.04C67.1122 37.04 66.7389 36.9493 66.4082 36.768C66.0829 36.5813 65.8269 36.328 65.6402 36.008C65.4535 35.6827 65.3602 35.312 65.3602 34.896C65.3602 34.4747 65.4535 34.104 65.6402 33.784C65.8269 33.464 66.0829 33.2133 66.4082 33.032C66.7389 32.8507 67.1122 32.76 67.5282 32.76C67.8855 32.76 68.2082 32.8293 68.4962 32.968C68.7842 33.1067 69.0109 33.3147 69.1762 33.592L68.7522 33.88C68.6082 33.6667 68.4295 33.5093 68.2162 33.408C68.0029 33.3067 67.7709 33.256 67.5202 33.256C67.2215 33.256 66.9522 33.3253 66.7122 33.464C66.4722 33.5973 66.2829 33.7867 66.1442 34.032C66.0055 34.2773 65.9362 34.5653 65.9362 34.896C65.9362 35.2267 66.0055 35.5147 66.1442 35.76C66.2829 36.0053 66.4722 36.1973 66.7122 36.336C66.9522 36.4693 67.2215 36.536 67.5202 36.536C67.7709 36.536 68.0029 36.4853 68.2162 36.384C68.4295 36.2827 68.6082 36.128 68.7522 35.92L69.1762 36.208C69.0109 36.48 68.7842 36.688 68.4962 36.832C68.2082 36.9707 67.8855 37.04 67.5282 37.04ZM72.0057 37.04C71.5684 37.04 71.1844 36.9493 70.8537 36.768C70.523 36.5813 70.2644 36.328 70.0777 36.008C69.891 35.6827 69.7977 35.312 69.7977 34.896C69.7977 34.48 69.8857 34.112 70.0617 33.792C70.243 33.472 70.4884 33.2213 70.7977 33.04C71.1124 32.8533 71.4644 32.76 71.8537 32.76C72.2484 32.76 72.5977 32.8507 72.9017 33.032C73.211 33.208 73.4537 33.4587 73.6297 33.784C73.8057 34.104 73.8937 34.4747 73.8937 34.896C73.8937 34.9227 73.891 34.952 73.8857 34.984C73.8857 35.0107 73.8857 35.04 73.8857 35.072H70.2297V34.648H73.5817L73.3577 34.816C73.3577 34.512 73.291 34.2427 73.1577 34.008C73.0297 33.768 72.8537 33.5813 72.6297 33.448C72.4057 33.3147 72.147 33.248 71.8537 33.248C71.5657 33.248 71.307 33.3147 71.0777 33.448C70.8484 33.5813 70.6697 33.768 70.5417 34.008C70.4137 34.248 70.3497 34.5227 70.3497 34.832V34.92C70.3497 35.24 70.419 35.5227 70.5577 35.768C70.7017 36.008 70.899 36.1973 71.1497 36.336C71.4057 36.4693 71.6964 36.536 72.0217 36.536C72.2777 36.536 72.515 36.4907 72.7337 36.4C72.9577 36.3093 73.1497 36.1707 73.3097 35.984L73.6297 36.352C73.443 36.576 73.2084 36.7467 72.9257 36.864C72.6484 36.9813 72.3417 37.04 72.0057 37.04ZM77.1436 37V32.8H77.7116V37H77.1436ZM77.4316 31.872C77.3142 31.872 77.2156 31.832 77.1356 31.752C77.0556 31.672 77.0156 31.576 77.0156 31.464C77.0156 31.352 77.0556 31.2587 77.1356 31.184C77.2156 31.104 77.3142 31.064 77.4316 31.064C77.5489 31.064 77.6476 31.1013 77.7276 31.176C77.8076 31.2507 77.8476 31.344 77.8476 31.456C77.8476 31.5733 77.8076 31.672 77.7276 31.752C77.6529 31.832 77.5542 31.872 77.4316 31.872ZM81.436 32.76C81.7773 32.76 82.076 32.8267 82.332 32.96C82.5933 33.088 82.796 33.2853 82.94 33.552C83.0893 33.8187 83.164 34.1547 83.164 34.56V37H82.596V34.616C82.596 34.1733 82.484 33.84 82.26 33.616C82.0413 33.3867 81.732 33.272 81.332 33.272C81.0333 33.272 80.772 33.3333 80.548 33.456C80.3293 33.5733 80.1587 33.7467 80.036 33.976C79.9187 34.2 79.86 34.472 79.86 34.792V37H79.292V32.8H79.836V33.952L79.748 33.736C79.8813 33.432 80.0947 33.1947 80.388 33.024C80.6813 32.848 81.0307 32.76 81.436 32.76ZM88.96 37.04C88.592 37.04 88.2613 36.9573 87.968 36.792C87.6747 36.6213 87.4427 36.376 87.272 36.056C87.1013 35.736 87.016 35.3493 87.016 34.896C87.016 34.4373 87.1013 34.0507 87.272 33.736C87.448 33.416 87.6827 33.1733 87.976 33.008C88.2693 32.8427 88.5973 32.76 88.96 32.76C89.36 32.76 89.7173 32.8507 90.032 33.032C90.352 33.208 90.6027 33.456 90.784 33.776C90.9653 34.096 91.056 34.4693 91.056 34.896C91.056 35.3173 90.9653 35.6907 90.784 36.016C90.6027 36.336 90.352 36.5867 90.032 36.768C89.7173 36.9493 89.36 37.04 88.96 37.04ZM86.792 37V31.064H87.36V34.04L87.28 34.888L87.336 35.736V37H86.792ZM88.92 36.536C89.2187 36.536 89.4853 36.4693 89.72 36.336C89.9547 36.1973 90.1413 36.0053 90.28 35.76C90.4187 35.5093 90.488 35.2213 90.488 34.896C90.488 34.5653 90.4187 34.2773 90.28 34.032C90.1413 33.7867 89.9547 33.5973 89.72 33.464C89.4853 33.3253 89.2187 33.256 88.92 33.256C88.6213 33.256 88.352 33.3253 88.112 33.464C87.8773 33.5973 87.6907 33.7867 87.552 34.032C87.4187 34.2773 87.352 34.5653 87.352 34.896C87.352 35.2213 87.4187 35.5093 87.552 35.76C87.6907 36.0053 87.8773 36.1973 88.112 36.336C88.352 36.4693 88.6213 36.536 88.92 36.536ZM93.9259 37.04C93.5205 37.04 93.1552 36.9493 92.8299 36.768C92.5099 36.5813 92.2565 36.328 92.0699 36.008C91.8832 35.6827 91.7899 35.312 91.7899 34.896C91.7899 34.4747 91.8832 34.104 92.0699 33.784C92.2565 33.464 92.5099 33.2133 92.8299 33.032C93.1499 32.8507 93.5152 32.76 93.9259 32.76C94.3419 32.76 94.7099 32.8507 95.0299 33.032C95.3552 33.2133 95.6085 33.464 95.7899 33.784C95.9765 34.104 96.0699 34.4747 96.0699 34.896C96.0699 35.312 95.9765 35.6827 95.7899 36.008C95.6085 36.328 95.3552 36.5813 95.0299 36.768C94.7045 36.9493 94.3365 37.04 93.9259 37.04ZM93.9259 36.536C94.2299 36.536 94.4992 36.4693 94.7339 36.336C94.9685 36.1973 95.1525 36.0053 95.2859 35.76C95.4245 35.5093 95.4939 35.2213 95.4939 34.896C95.4939 34.5653 95.4245 34.2773 95.2859 34.032C95.1525 33.7867 94.9685 33.5973 94.7339 33.464C94.4992 33.3253 94.2325 33.256 93.9339 33.256C93.6352 33.256 93.3685 33.3253 93.1339 33.464C92.8992 33.5973 92.7125 33.7867 92.5739 34.032C92.4352 34.2773 92.3659 34.5653 92.3659 34.896C92.3659 35.2213 92.4352 35.5093 92.5739 35.76C92.7125 36.0053 92.8992 36.1973 93.1339 36.336C93.3685 36.4693 93.6325 36.536 93.9259 36.536ZM98.5575 37.04C98.1628 37.04 97.8588 36.9333 97.6455 36.72C97.4322 36.5067 97.3255 36.2053 97.3255 35.816V31.872H97.8935V35.784C97.8935 36.0293 97.9548 36.2187 98.0775 36.352C98.2055 36.4853 98.3868 36.552 98.6215 36.552C98.8722 36.552 99.0802 36.48 99.2455 36.336L99.4455 36.744C99.3335 36.8453 99.1975 36.92 99.0375 36.968C98.8828 37.016 98.7228 37.04 98.5575 37.04ZM96.5735 33.272V32.8H99.1735V33.272H96.5735ZM102.624 32.76C102.965 32.76 103.264 32.8267 103.52 32.96C103.781 33.088 103.984 33.2853 104.128 33.552C104.277 33.8187 104.352 34.1547 104.352 34.56V37H103.784V34.616C103.784 34.1733 103.672 33.84 103.448 33.616C103.229 33.3867 102.92 33.272 102.52 33.272C102.221 33.272 101.96 33.3333 101.736 33.456C101.517 33.5733 101.346 33.7467 101.224 33.976C101.106 34.2 101.048 34.472 101.048 34.792V37H100.48V31.064H101.048V33.952L100.936 33.736C101.069 33.432 101.282 33.1947 101.576 33.024C101.869 32.848 102.218 32.76 102.624 32.76ZM13.888 47V42.272C13.888 41.8987 13.9973 41.5973 14.216 41.368C14.4347 41.1387 14.7493 41.024 15.16 41.024C15.32 41.024 15.4747 41.0453 15.624 41.088C15.7733 41.1307 15.8987 41.1973 16 41.288L15.808 41.712C15.728 41.6427 15.6347 41.592 15.528 41.56C15.4213 41.5227 15.3067 41.504 15.184 41.504C14.944 41.504 14.76 41.5707 14.632 41.704C14.504 41.8373 14.44 42.0347 14.44 42.296V42.936L14.456 43.2V47H13.888ZM13.136 43.272V42.8H15.736V43.272H13.136ZM18.2389 47.04C17.8816 47.04 17.5696 46.9733 17.3029 46.84C17.0363 46.7067 16.8283 46.5067 16.6789 46.24C16.5349 45.9733 16.4629 45.64 16.4629 45.24V42.8H17.0309V45.176C17.0309 45.624 17.1403 45.9627 17.3589 46.192C17.5829 46.416 17.8949 46.528 18.2949 46.528C18.5883 46.528 18.8416 46.4693 19.0549 46.352C19.2736 46.2293 19.4389 46.0533 19.5509 45.824C19.6683 45.5947 19.7269 45.32 19.7269 45V42.8H20.2949V47H19.7509V45.848L19.8389 46.056C19.7056 46.3653 19.4976 46.608 19.2149 46.784C18.9376 46.9547 18.6123 47.04 18.2389 47.04ZM24.0219 42.76C24.3633 42.76 24.6619 42.8267 24.9179 42.96C25.1793 43.088 25.3819 43.2853 25.5259 43.552C25.6753 43.8187 25.7499 44.1547 25.7499 44.56V47H25.1819V44.616C25.1819 44.1733 25.0699 43.84 24.8459 43.616C24.6273 43.3867 24.3179 43.272 23.9179 43.272C23.6193 43.272 23.3579 43.3333 23.1339 43.456C22.9153 43.5733 22.7446 43.7467 22.6219 43.976C22.5046 44.2 22.4459 44.472 22.4459 44.792V47H21.8779V42.8H22.4219V43.952L22.3339 43.736C22.4673 43.432 22.6806 43.1947 22.9739 43.024C23.2673 42.848 23.6166 42.76 24.0219 42.76ZM29.0282 47.04C28.6122 47.04 28.2389 46.9493 27.9082 46.768C27.5829 46.5813 27.3269 46.328 27.1402 46.008C26.9535 45.6827 26.8602 45.312 26.8602 44.896C26.8602 44.4747 26.9535 44.104 27.1402 43.784C27.3269 43.464 27.5829 43.2133 27.9082 43.032C28.2389 42.8507 28.6122 42.76 29.0282 42.76C29.3855 42.76 29.7082 42.8293 29.9962 42.968C30.2842 43.1067 30.5109 43.3147 30.6762 43.592L30.2522 43.88C30.1082 43.6667 29.9295 43.5093 29.7162 43.408C29.5029 43.3067 29.2709 43.256 29.0202 43.256C28.7215 43.256 28.4522 43.3253 28.2122 43.464C27.9722 43.5973 27.7829 43.7867 27.6442 44.032C27.5055 44.2773 27.4362 44.5653 27.4362 44.896C27.4362 45.2267 27.5055 45.5147 27.6442 45.76C27.7829 46.0053 27.9722 46.1973 28.2122 46.336C28.4522 46.4693 28.7215 46.536 29.0202 46.536C29.2709 46.536 29.5029 46.4853 29.7162 46.384C29.9295 46.2827 30.1082 46.128 30.2522 45.92L30.6762 46.208C30.5109 46.48 30.2842 46.688 29.9962 46.832C29.7082 46.9707 29.3855 47.04 29.0282 47.04ZM33.1669 47.04C32.7722 47.04 32.4682 46.9333 32.2549 46.72C32.0415 46.5067 31.9349 46.2053 31.9349 45.816V41.872H32.5029V45.784C32.5029 46.0293 32.5642 46.2187 32.6869 46.352C32.8149 46.4853 32.9962 46.552 33.2309 46.552C33.4815 46.552 33.6895 46.48 33.8549 46.336L34.0549 46.744C33.9429 46.8453 33.8069 46.92 33.6469 46.968C33.4922 47.016 33.3322 47.04 33.1669 47.04ZM31.1829 43.272V42.8H33.7829V43.272H31.1829ZM35.0889 47V42.8H35.6569V47H35.0889ZM35.3769 41.872C35.2595 41.872 35.1609 41.832 35.0809 41.752C35.0009 41.672 34.9609 41.576 34.9609 41.464C34.9609 41.352 35.0009 41.2587 35.0809 41.184C35.1609 41.104 35.2595 41.064 35.3769 41.064C35.4942 41.064 35.5929 41.1013 35.6729 41.176C35.7529 41.2507 35.7929 41.344 35.7929 41.456C35.7929 41.5733 35.7529 41.672 35.6729 41.752C35.5982 41.832 35.4995 41.872 35.3769 41.872ZM38.9493 47.04C38.544 47.04 38.1786 46.9493 37.8533 46.768C37.5333 46.5813 37.28 46.328 37.0933 46.008C36.9066 45.6827 36.8133 45.312 36.8133 44.896C36.8133 44.4747 36.9066 44.104 37.0933 43.784C37.28 43.464 37.5333 43.2133 37.8533 43.032C38.1733 42.8507 38.5386 42.76 38.9493 42.76C39.3653 42.76 39.7333 42.8507 40.0533 43.032C40.3786 43.2133 40.632 43.464 40.8133 43.784C41 44.104 41.0933 44.4747 41.0933 44.896C41.0933 45.312 41 45.6827 40.8133 46.008C40.632 46.328 40.3786 46.5813 40.0533 46.768C39.728 46.9493 39.36 47.04 38.9493 47.04ZM38.9493 46.536C39.2533 46.536 39.5226 46.4693 39.7573 46.336C39.992 46.1973 40.176 46.0053 40.3093 45.76C40.448 45.5093 40.5173 45.2213 40.5173 44.896C40.5173 44.5653 40.448 44.2773 40.3093 44.032C40.176 43.7867 39.992 43.5973 39.7573 43.464C39.5226 43.3253 39.256 43.256 38.9573 43.256C38.6586 43.256 38.392 43.3253 38.1573 43.464C37.9226 43.5973 37.736 43.7867 37.5973 44.032C37.4586 44.2773 37.3893 44.5653 37.3893 44.896C37.3893 45.2213 37.4586 45.5093 37.5973 45.76C37.736 46.0053 37.9226 46.1973 38.1573 46.336C38.392 46.4693 38.656 46.536 38.9493 46.536ZM44.3969 42.76C44.7383 42.76 45.0369 42.8267 45.2929 42.96C45.5543 43.088 45.7569 43.2853 45.9009 43.552C46.0503 43.8187 46.1249 44.1547 46.1249 44.56V47H45.5569V44.616C45.5569 44.1733 45.4449 43.84 45.2209 43.616C45.0023 43.3867 44.6929 43.272 44.2929 43.272C43.9943 43.272 43.7329 43.3333 43.5089 43.456C43.2903 43.5733 43.1196 43.7467 42.9969 43.976C42.8796 44.2 42.8209 44.472 42.8209 44.792V47H42.2529V42.8H42.7969V43.952L42.7089 43.736C42.8423 43.432 43.0556 43.1947 43.3489 43.024C43.6423 42.848 43.9916 42.76 44.3969 42.76ZM52.3849 47V46.072L52.3609 45.92V44.368C52.3609 44.0107 52.2596 43.736 52.0569 43.544C51.8596 43.352 51.5636 43.256 51.1689 43.256C50.8969 43.256 50.6383 43.3013 50.3929 43.392C50.1476 43.4827 49.9396 43.6027 49.7689 43.752L49.5129 43.328C49.7263 43.1467 49.9823 43.008 50.2809 42.912C50.5796 42.8107 50.8943 42.76 51.2249 42.76C51.7689 42.76 52.1876 42.896 52.4809 43.168C52.7796 43.4347 52.9289 43.8427 52.9289 44.392V47H52.3849ZM50.9369 47.04C50.6223 47.04 50.3476 46.9893 50.1129 46.888C49.8836 46.7813 49.7076 46.6373 49.5849 46.456C49.4623 46.2693 49.4009 46.056 49.4009 45.816C49.4009 45.5973 49.4516 45.4 49.5529 45.224C49.6596 45.0427 49.8303 44.8987 50.0649 44.792C50.3049 44.68 50.6249 44.624 51.0249 44.624H52.4729V45.048H51.0409C50.6356 45.048 50.3529 45.12 50.1929 45.264C50.0383 45.408 49.9609 45.5867 49.9609 45.8C49.9609 46.04 50.0543 46.232 50.2409 46.376C50.4276 46.52 50.6889 46.592 51.0249 46.592C51.3449 46.592 51.6196 46.52 51.8489 46.376C52.0836 46.2267 52.2543 46.0133 52.3609 45.736L52.4889 46.128C52.3823 46.4053 52.1956 46.6267 51.9289 46.792C51.6676 46.9573 51.3369 47.04 50.9369 47.04ZM56.6157 42.76C56.957 42.76 57.2557 42.8267 57.5117 42.96C57.773 43.088 57.9757 43.2853 58.1197 43.552C58.269 43.8187 58.3437 44.1547 58.3437 44.56V47H57.7757V44.616C57.7757 44.1733 57.6637 43.84 57.4397 43.616C57.221 43.3867 56.9117 43.272 56.5117 43.272C56.213 43.272 55.9517 43.3333 55.7277 43.456C55.509 43.5733 55.3384 43.7467 55.2157 43.976C55.0984 44.2 55.0397 44.472 55.0397 44.792V47H54.4717V42.8H55.0157V43.952L54.9277 43.736C55.061 43.432 55.2744 43.1947 55.5677 43.024C55.861 42.848 56.2104 42.76 56.6157 42.76ZM61.5499 47.04C61.1499 47.04 60.7899 46.9493 60.4699 46.768C60.1553 46.5867 59.9073 46.336 59.7259 46.016C59.5446 45.6907 59.4539 45.3173 59.4539 44.896C59.4539 44.4693 59.5446 44.096 59.7259 43.776C59.9073 43.456 60.1553 43.208 60.4699 43.032C60.7899 42.8507 61.1499 42.76 61.5499 42.76C61.9179 42.76 62.2459 42.8427 62.5339 43.008C62.8273 43.1733 63.0593 43.416 63.2299 43.736C63.4059 44.0507 63.4939 44.4373 63.4939 44.896C63.4939 45.3493 63.4086 45.736 63.2379 46.056C63.0673 46.376 62.8353 46.6213 62.5419 46.792C62.2539 46.9573 61.9233 47.04 61.5499 47.04ZM61.5899 46.536C61.8886 46.536 62.1553 46.4693 62.3899 46.336C62.6299 46.1973 62.8166 46.0053 62.9499 45.76C63.0886 45.5093 63.1579 45.2213 63.1579 44.896C63.1579 44.5653 63.0886 44.2773 62.9499 44.032C62.8166 43.7867 62.6299 43.5973 62.3899 43.464C62.1553 43.3253 61.8886 43.256 61.5899 43.256C61.2966 43.256 61.0326 43.3253 60.7979 43.464C60.5633 43.5973 60.3766 43.7867 60.2379 44.032C60.0993 44.2773 60.0299 44.5653 60.0299 44.896C60.0299 45.2213 60.0993 45.5093 60.2379 45.76C60.3766 46.0053 60.5633 46.1973 60.7979 46.336C61.0326 46.4693 61.2966 46.536 61.5899 46.536ZM63.1739 47V45.736L63.2299 44.888L63.1499 44.04V41.064H63.7179V47H63.1739ZM69.9616 47.048C69.5402 47.048 69.1482 46.9787 68.7856 46.84C68.4282 46.696 68.1162 46.496 67.8496 46.24C67.5882 45.9787 67.3829 45.6773 67.2336 45.336C67.0896 44.9893 67.0176 44.6107 67.0176 44.2C67.0176 43.7893 67.0896 43.4133 67.2336 43.072C67.3829 42.7253 67.5882 42.424 67.8496 42.168C68.1162 41.9067 68.4282 41.7067 68.7856 41.568C69.1429 41.424 69.5349 41.352 69.9616 41.352C70.3829 41.352 70.7722 41.424 71.1296 41.568C71.4869 41.7067 71.7962 41.904 72.0576 42.16C72.3242 42.416 72.5296 42.7173 72.6736 43.064C72.8229 43.4107 72.8976 43.7893 72.8976 44.2C72.8976 44.6107 72.8229 44.9893 72.6736 45.336C72.5296 45.6827 72.3242 45.984 72.0576 46.24C71.7962 46.496 71.4869 46.696 71.1296 46.84C70.7722 46.9787 70.3829 47.048 69.9616 47.048ZM69.9616 46.52C70.2976 46.52 70.6069 46.464 70.8896 46.352C71.1776 46.2347 71.4256 46.072 71.6336 45.864C71.8469 45.6507 72.0122 45.4053 72.1296 45.128C72.2469 44.8453 72.3056 44.536 72.3056 44.2C72.3056 43.864 72.2469 43.5573 72.1296 43.28C72.0122 42.9973 71.8469 42.752 71.6336 42.544C71.4256 42.3307 71.1776 42.168 70.8896 42.056C70.6069 41.9387 70.2976 41.88 69.9616 41.88C69.6256 41.88 69.3136 41.9387 69.0256 42.056C68.7376 42.168 68.4869 42.3307 68.2736 42.544C68.0656 42.752 67.9002 42.9973 67.7776 43.28C67.6602 43.5573 67.6016 43.864 67.6016 44.2C67.6016 44.5307 67.6602 44.8373 67.7776 45.12C67.9002 45.4027 68.0656 45.6507 68.2736 45.864C68.4869 46.072 68.7376 46.2347 69.0256 46.352C69.3136 46.464 69.6256 46.52 69.9616 46.52ZM76.6725 47.048C76.2512 47.048 75.8592 46.9787 75.4965 46.84C75.1392 46.696 74.8272 46.496 74.5605 46.24C74.2992 45.9787 74.0938 45.6773 73.9445 45.336C73.8005 44.9893 73.7285 44.6107 73.7285 44.2C73.7285 43.7893 73.8005 43.4133 73.9445 43.072C74.0938 42.7253 74.2992 42.424 74.5605 42.168C74.8272 41.9067 75.1392 41.7067 75.4965 41.568C75.8538 41.424 76.2458 41.352 76.6725 41.352C77.0938 41.352 77.4832 41.424 77.8405 41.568C78.1978 41.7067 78.5072 41.904 78.7685 42.16C79.0352 42.416 79.2405 42.7173 79.3845 43.064C79.5338 43.4107 79.6085 43.7893 79.6085 44.2C79.6085 44.6107 79.5338 44.9893 79.3845 45.336C79.2405 45.6827 79.0352 45.984 78.7685 46.24C78.5072 46.496 78.1978 46.696 77.8405 46.84C77.4832 46.9787 77.0938 47.048 76.6725 47.048ZM76.6725 46.52C77.0085 46.52 77.3178 46.464 77.6005 46.352C77.8885 46.2347 78.1365 46.072 78.3445 45.864C78.5578 45.6507 78.7232 45.4053 78.8405 45.128C78.9578 44.8453 79.0165 44.536 79.0165 44.2C79.0165 43.864 78.9578 43.5573 78.8405 43.28C78.7232 42.9973 78.5578 42.752 78.3445 42.544C78.1365 42.3307 77.8885 42.168 77.6005 42.056C77.3178 41.9387 77.0085 41.88 76.6725 41.88C76.3365 41.88 76.0245 41.9387 75.7365 42.056C75.4485 42.168 75.1978 42.3307 74.9845 42.544C74.7765 42.752 74.6112 42.9973 74.4885 43.28C74.3712 43.5573 74.3125 43.864 74.3125 44.2C74.3125 44.5307 74.3712 44.8373 74.4885 45.12C74.6112 45.4027 74.7765 45.6507 74.9845 45.864C75.1978 46.072 75.4485 46.2347 75.7365 46.352C76.0245 46.464 76.3365 46.52 76.6725 46.52ZM80.9354 47V41.4H83.0314C83.5061 41.4 83.9141 41.4773 84.2554 41.632C84.5968 41.7813 84.8581 42 85.0394 42.288C85.2261 42.5707 85.3194 42.9147 85.3194 43.32C85.3194 43.7147 85.2261 44.056 85.0394 44.344C84.8581 44.6267 84.5968 44.8453 84.2554 45C83.9141 45.1547 83.5061 45.232 83.0314 45.232H81.2634L81.5274 44.952V47H80.9354ZM81.5274 45L81.2634 44.712H83.0154C83.5754 44.712 83.9994 44.592 84.2874 44.352C84.5808 44.1067 84.7274 43.7627 84.7274 43.32C84.7274 42.872 84.5808 42.5253 84.2874 42.28C83.9994 42.0347 83.5754 41.912 83.0154 41.912H81.2634L81.5274 41.632V45ZM86.6136 43.632C86.4963 43.632 86.395 43.5893 86.3096 43.504C86.2296 43.4187 86.1896 43.3147 86.1896 43.192C86.1896 43.064 86.2296 42.96 86.3096 42.88C86.395 42.8 86.4963 42.76 86.6136 42.76C86.731 42.76 86.8296 42.8 86.9096 42.88C86.995 42.96 87.0376 43.064 87.0376 43.192C87.0376 43.3147 86.995 43.4187 86.9096 43.504C86.8296 43.5893 86.731 43.632 86.6136 43.632ZM86.6136 47.04C86.4963 47.04 86.395 46.9973 86.3096 46.912C86.2296 46.8267 86.1896 46.7227 86.1896 46.6C86.1896 46.472 86.2296 46.368 86.3096 46.288C86.395 46.208 86.4963 46.168 86.6136 46.168C86.731 46.168 86.8296 46.208 86.9096 46.288C86.995 46.368 87.0376 46.472 87.0376 46.6C87.0376 46.7227 86.995 46.8267 86.9096 46.912C86.8296 46.9973 86.731 47.04 86.6136 47.04ZM92.5604 47V41.4H94.6564C95.1311 41.4 95.5391 41.4773 95.8804 41.632C96.2218 41.7813 96.4831 42 96.6644 42.288C96.8511 42.5707 96.9444 42.9147 96.9444 43.32C96.9444 43.7147 96.8511 44.056 96.6644 44.344C96.4831 44.6267 96.2218 44.8453 95.8804 45C95.5391 45.1547 95.1311 45.232 94.6564 45.232H92.8884L93.1524 44.952V47H92.5604ZM93.1524 45L92.8884 44.712H94.6404C95.2004 44.712 95.6244 44.592 95.9124 44.352C96.2058 44.1067 96.3524 43.7627 96.3524 43.32C96.3524 42.872 96.2058 42.5253 95.9124 42.28C95.6244 42.0347 95.2004 41.912 94.6404 41.912H92.8884L93.1524 41.632V45ZM102.321 41.4H102.905V47H102.321V41.4ZM98.8165 47H98.2245V41.4H98.8165V47ZM102.377 44.416H98.7525V43.896H102.377V44.416ZM104.732 47V41.4H106.828C107.303 41.4 107.711 41.4773 108.052 41.632C108.394 41.7813 108.655 42 108.836 42.288C109.023 42.5707 109.116 42.9147 109.116 43.32C109.116 43.7147 109.023 44.056 108.836 44.344C108.655 44.6267 108.394 44.8453 108.052 45C107.711 45.1547 107.303 45.232 106.828 45.232H105.06L105.324 44.952V47H104.732ZM105.324 45L105.06 44.712H106.812C107.372 44.712 107.796 44.592 108.084 44.352C108.378 44.1067 108.524 43.7627 108.524 43.32C108.524 42.872 108.378 42.5253 108.084 42.28C107.796 42.0347 107.372 41.912 106.812 41.912H105.06L105.324 41.632V45ZM109.776 48.168L110.128 46.688L110.192 47.032C110.069 47.032 109.965 46.992 109.88 46.912C109.8 46.832 109.76 46.728 109.76 46.6C109.76 46.472 109.8 46.368 109.88 46.288C109.965 46.208 110.067 46.168 110.184 46.168C110.307 46.168 110.405 46.2107 110.48 46.296C110.56 46.3813 110.6 46.4827 110.6 46.6C110.6 46.6427 110.597 46.6853 110.592 46.728C110.587 46.7707 110.576 46.8187 110.56 46.872C110.544 46.9253 110.523 46.9893 110.496 47.064L110.16 48.168H109.776ZM14.512 57.048C14.1973 57.048 13.9013 56.9787 13.624 56.84C13.352 56.7013 13.1333 56.504 12.968 56.248L13.312 55.848C13.4667 56.072 13.6453 56.2427 13.848 56.36C14.0507 56.4773 14.2747 56.536 14.52 56.536C15.2133 56.536 15.56 56.1253 15.56 55.304V51.912H13.512V51.4H16.144V55.28C16.144 55.872 16.0053 56.3147 15.728 56.608C15.456 56.9013 15.0507 57.048 14.512 57.048ZM20.4318 57V56.072L20.4078 55.92V54.368C20.4078 54.0107 20.3065 53.736 20.1038 53.544C19.9065 53.352 19.6105 53.256 19.2158 53.256C18.9438 53.256 18.6851 53.3013 18.4398 53.392C18.1945 53.4827 17.9865 53.6027 17.8158 53.752L17.5598 53.328C17.7731 53.1467 18.0291 53.008 18.3278 52.912C18.6265 52.8107 18.9411 52.76 19.2718 52.76C19.8158 52.76 20.2345 52.896 20.5278 53.168C20.8265 53.4347 20.9758 53.8427 20.9758 54.392V57H20.4318ZM18.9838 57.04C18.6691 57.04 18.3945 56.9893 18.1598 56.888C17.9305 56.7813 17.7545 56.6373 17.6318 56.456C17.5091 56.2693 17.4478 56.056 17.4478 55.816C17.4478 55.5973 17.4985 55.4 17.5998 55.224C17.7065 55.0427 17.8771 54.8987 18.1118 54.792C18.3518 54.68 18.6718 54.624 19.0718 54.624H20.5198V55.048H19.0878C18.6825 55.048 18.3998 55.12 18.2398 55.264C18.0851 55.408 18.0078 55.5867 18.0078 55.8C18.0078 56.04 18.1011 56.232 18.2878 56.376C18.4745 56.52 18.7358 56.592 19.0718 56.592C19.3918 56.592 19.6665 56.52 19.8958 56.376C20.1305 56.2267 20.3011 56.0133 20.4078 55.736L20.5358 56.128C20.4291 56.4053 20.2425 56.6267 19.9758 56.792C19.7145 56.9573 19.3838 57.04 18.9838 57.04ZM23.5204 57L21.6564 52.8H22.2484L23.9604 56.696H23.6804L25.4164 52.8H25.9764L24.1044 57H23.5204ZM29.2834 57V56.072L29.2594 55.92V54.368C29.2594 54.0107 29.158 53.736 28.9554 53.544C28.758 53.352 28.462 53.256 28.0674 53.256C27.7954 53.256 27.5367 53.3013 27.2914 53.392C27.046 53.4827 26.838 53.6027 26.6674 53.752L26.4114 53.328C26.6247 53.1467 26.8807 53.008 27.1794 52.912C27.478 52.8107 27.7927 52.76 28.1234 52.76C28.6674 52.76 29.086 52.896 29.3794 53.168C29.678 53.4347 29.8274 53.8427 29.8274 54.392V57H29.2834ZM27.8354 57.04C27.5207 57.04 27.246 56.9893 27.0114 56.888C26.782 56.7813 26.606 56.6373 26.4834 56.456C26.3607 56.2693 26.2994 56.056 26.2994 55.816C26.2994 55.5973 26.35 55.4 26.4514 55.224C26.558 55.0427 26.7287 54.8987 26.9634 54.792C27.2034 54.68 27.5234 54.624 27.9234 54.624H29.3714V55.048H27.9394C27.534 55.048 27.2514 55.12 27.0914 55.264C26.9367 55.408 26.8594 55.5867 26.8594 55.8C26.8594 56.04 26.9527 56.232 27.1394 56.376C27.326 56.52 27.5874 56.592 27.9234 56.592C28.2434 56.592 28.518 56.52 28.7474 56.376C28.982 56.2267 29.1527 56.0133 29.2594 55.736L29.3874 56.128C29.2807 56.4053 29.094 56.6267 28.8274 56.792C28.566 56.9573 28.2354 57.04 27.8354 57.04ZM31.0261 58.168L31.3781 56.688L31.4421 57.032C31.3195 57.032 31.2155 56.992 31.1301 56.912C31.0501 56.832 31.0101 56.728 31.0101 56.6C31.0101 56.472 31.0501 56.368 31.1301 56.288C31.2155 56.208 31.3168 56.168 31.4341 56.168C31.5568 56.168 31.6555 56.2107 31.7301 56.296C31.8101 56.3813 31.8501 56.4827 31.8501 56.6C31.8501 56.6427 31.8475 56.6853 31.8421 56.728C31.8368 56.7707 31.8261 56.8187 31.8101 56.872C31.7941 56.9253 31.7728 56.9893 31.7461 57.064L31.4101 58.168H31.0261ZM35.8792 57.048C35.5645 57.048 35.2685 56.9787 34.9912 56.84C34.7192 56.7013 34.5005 56.504 34.3352 56.248L34.6792 55.848C34.8339 56.072 35.0125 56.2427 35.2152 56.36C35.4179 56.4773 35.6419 56.536 35.8872 56.536C36.5805 56.536 36.9272 56.1253 36.9272 55.304V51.912H34.8792V51.4H37.5112V55.28C37.5112 55.872 37.3725 56.3147 37.0952 56.608C36.8232 56.9013 36.4179 57.048 35.8792 57.048ZM41.799 57V56.072L41.775 55.92V54.368C41.775 54.0107 41.6737 53.736 41.471 53.544C41.2737 53.352 40.9777 53.256 40.583 53.256C40.311 53.256 40.0523 53.3013 39.807 53.392C39.5617 53.4827 39.3537 53.6027 39.183 53.752L38.927 53.328C39.1403 53.1467 39.3963 53.008 39.695 52.912C39.9937 52.8107 40.3083 52.76 40.639 52.76C41.183 52.76 41.6017 52.896 41.895 53.168C42.1937 53.4347 42.343 53.8427 42.343 54.392V57H41.799ZM40.351 57.04C40.0363 57.04 39.7617 56.9893 39.527 56.888C39.2977 56.7813 39.1217 56.6373 38.999 56.456C38.8763 56.2693 38.815 56.056 38.815 55.816C38.815 55.5973 38.8657 55.4 38.967 55.224C39.0737 55.0427 39.2443 54.8987 39.479 54.792C39.719 54.68 40.039 54.624 40.439 54.624H41.887V55.048H40.455C40.0497 55.048 39.767 55.12 39.607 55.264C39.4523 55.408 39.375 55.5867 39.375 55.8C39.375 56.04 39.4683 56.232 39.655 56.376C39.8417 56.52 40.103 56.592 40.439 56.592C40.759 56.592 41.0337 56.52 41.263 56.376C41.4977 56.2267 41.6683 56.0133 41.775 55.736L41.903 56.128C41.7963 56.4053 41.6097 56.6267 41.343 56.792C41.0817 56.9573 40.751 57.04 40.351 57.04ZM44.8876 57L43.0236 52.8H43.6156L45.3276 56.696H45.0476L46.7836 52.8H47.3436L45.4716 57H44.8876ZM50.6506 57V56.072L50.6266 55.92V54.368C50.6266 54.0107 50.5252 53.736 50.3226 53.544C50.1252 53.352 49.8292 53.256 49.4346 53.256C49.1626 53.256 48.9039 53.3013 48.6586 53.392C48.4132 53.4827 48.2052 53.6027 48.0346 53.752L47.7786 53.328C47.9919 53.1467 48.2479 53.008 48.5466 52.912C48.8452 52.8107 49.1599 52.76 49.4906 52.76C50.0346 52.76 50.4532 52.896 50.7466 53.168C51.0452 53.4347 51.1946 53.8427 51.1946 54.392V57H50.6506ZM49.2026 57.04C48.8879 57.04 48.6132 56.9893 48.3786 56.888C48.1492 56.7813 47.9732 56.6373 47.8506 56.456C47.7279 56.2693 47.6666 56.056 47.6666 55.816C47.6666 55.5973 47.7172 55.4 47.8186 55.224C47.9252 55.0427 48.0959 54.8987 48.3306 54.792C48.5706 54.68 48.8906 54.624 49.2906 54.624H50.7386V55.048H49.3066C48.9012 55.048 48.6186 55.12 48.4586 55.264C48.3039 55.408 48.2266 55.5867 48.2266 55.8C48.2266 56.04 48.3199 56.232 48.5066 56.376C48.6932 56.52 48.9546 56.592 49.2906 56.592C49.6106 56.592 49.8852 56.52 50.1146 56.376C50.3492 56.2267 50.5199 56.0133 50.6266 55.736L50.7546 56.128C50.6479 56.4053 50.4612 56.6267 50.1946 56.792C49.9332 56.9573 49.6026 57.04 49.2026 57.04ZM53.8653 57.04C53.5186 57.04 53.1906 56.992 52.8813 56.896C52.572 56.7947 52.3293 56.6693 52.1533 56.52L52.4093 56.072C52.58 56.2 52.7986 56.312 53.0653 56.408C53.332 56.4987 53.612 56.544 53.9053 56.544C54.3053 56.544 54.5933 56.4827 54.7693 56.36C54.9453 56.232 55.0333 56.064 55.0333 55.856C55.0333 55.7013 54.9826 55.5813 54.8813 55.496C54.7853 55.4053 54.6573 55.3387 54.4973 55.296C54.3373 55.248 54.1586 55.208 53.9613 55.176C53.764 55.144 53.5666 55.1067 53.3693 55.064C53.1773 55.0213 53.0013 54.96 52.8413 54.88C52.6813 54.7947 52.5506 54.68 52.4493 54.536C52.3533 54.392 52.3053 54.2 52.3053 53.96C52.3053 53.7307 52.3693 53.5253 52.4973 53.344C52.6253 53.1627 52.812 53.0213 53.0573 52.92C53.308 52.8133 53.612 52.76 53.9693 52.76C54.2413 52.76 54.5133 52.7973 54.7853 52.872C55.0573 52.9413 55.2813 53.0347 55.4573 53.152L55.2093 53.608C55.0226 53.48 54.8226 53.3893 54.6093 53.336C54.396 53.2773 54.1826 53.248 53.9693 53.248C53.5906 53.248 53.3106 53.3147 53.1293 53.448C52.9533 53.576 52.8653 53.7413 52.8653 53.944C52.8653 54.104 52.9133 54.2293 53.0093 54.32C53.1106 54.4107 53.2413 54.4827 53.4013 54.536C53.5666 54.584 53.7453 54.624 53.9373 54.656C54.1346 54.688 54.3293 54.728 54.5213 54.776C54.7186 54.8187 54.8973 54.88 55.0573 54.96C55.2226 55.0347 55.3533 55.144 55.4493 55.288C55.5506 55.4267 55.6013 55.6107 55.6013 55.84C55.6013 56.0853 55.532 56.2987 55.3933 56.48C55.26 56.656 55.0626 56.7947 54.8013 56.896C54.5453 56.992 54.2333 57.04 53.8653 57.04ZM58.3876 57.04C57.9716 57.04 57.5982 56.9493 57.2676 56.768C56.9422 56.5813 56.6862 56.328 56.4996 56.008C56.3129 55.6827 56.2196 55.312 56.2196 54.896C56.2196 54.4747 56.3129 54.104 56.4996 53.784C56.6862 53.464 56.9422 53.2133 57.2676 53.032C57.5982 52.8507 57.9716 52.76 58.3876 52.76C58.7449 52.76 59.0676 52.8293 59.3556 52.968C59.6436 53.1067 59.8702 53.3147 60.0356 53.592L59.6116 53.88C59.4676 53.6667 59.2889 53.5093 59.0756 53.408C58.8622 53.3067 58.6302 53.256 58.3796 53.256C58.0809 53.256 57.8116 53.3253 57.5716 53.464C57.3316 53.5973 57.1422 53.7867 57.0036 54.032C56.8649 54.2773 56.7956 54.5653 56.7956 54.896C56.7956 55.2267 56.8649 55.5147 57.0036 55.76C57.1422 56.0053 57.3316 56.1973 57.5716 56.336C57.8116 56.4693 58.0809 56.536 58.3796 56.536C58.6302 56.536 58.8622 56.4853 59.0756 56.384C59.2889 56.2827 59.4676 56.128 59.6116 55.92L60.0356 56.208C59.8702 56.48 59.6436 56.688 59.3556 56.832C59.0676 56.9707 58.7449 57.04 58.3876 57.04ZM61.1514 57V52.8H61.6954V53.944L61.6394 53.744C61.7567 53.424 61.954 53.1813 62.2314 53.016C62.5087 52.8453 62.8527 52.76 63.2634 52.76V53.312C63.242 53.312 63.2207 53.312 63.1994 53.312C63.178 53.3067 63.1567 53.304 63.1354 53.304C62.6927 53.304 62.346 53.44 62.0954 53.712C61.8447 53.9787 61.7194 54.36 61.7194 54.856V57H61.1514ZM64.2998 57V52.8H64.8678V57H64.2998ZM64.5878 51.872C64.4705 51.872 64.3718 51.832 64.2918 51.752C64.2118 51.672 64.1718 51.576 64.1718 51.464C64.1718 51.352 64.2118 51.2587 64.2918 51.184C64.3718 51.104 64.4705 51.064 64.5878 51.064C64.7051 51.064 64.8038 51.1013 64.8838 51.176C64.9638 51.2507 65.0038 51.344 65.0038 51.456C65.0038 51.5733 64.9638 51.672 64.8838 51.752C64.8091 51.832 64.7105 51.872 64.5878 51.872ZM68.6163 57.04C68.2536 57.04 67.9256 56.9573 67.6323 56.792C67.3389 56.6213 67.1043 56.3787 66.9283 56.064C66.7576 55.744 66.6723 55.3547 66.6723 54.896C66.6723 54.4373 66.7576 54.0507 66.9283 53.736C67.0989 53.416 67.3309 53.1733 67.6243 53.008C67.9176 52.8427 68.2483 52.76 68.6163 52.76C69.0163 52.76 69.3736 52.8507 69.6883 53.032C70.0083 53.208 70.2589 53.4587 70.4403 53.784C70.6216 54.104 70.7123 54.4747 70.7123 54.896C70.7123 55.3227 70.6216 55.696 70.4403 56.016C70.2589 56.336 70.0083 56.5867 69.6883 56.768C69.3736 56.9493 69.0163 57.04 68.6163 57.04ZM66.4483 58.552V52.8H66.9923V54.064L66.9363 54.904L67.0163 55.752V58.552H66.4483ZM68.5763 56.536C68.8749 56.536 69.1416 56.4693 69.3763 56.336C69.6109 56.1973 69.7976 56.0053 69.9363 55.76C70.0749 55.5093 70.1443 55.2213 70.1443 54.896C70.1443 54.5707 70.0749 54.2853 69.9363 54.04C69.7976 53.7947 69.6109 53.6027 69.3763 53.464C69.1416 53.3253 68.8749 53.256 68.5763 53.256C68.2776 53.256 68.0083 53.3253 67.7682 53.464C67.5336 53.6027 67.3469 53.7947 67.2083 54.04C67.0749 54.2853 67.0083 54.5707 67.0083 54.896C67.0083 55.2213 67.0749 55.5093 67.2083 55.76C67.3469 56.0053 67.5336 56.1973 67.7682 56.336C68.0083 56.4693 68.2776 56.536 68.5763 56.536ZM73.1981 57.04C72.8035 57.04 72.4995 56.9333 72.2861 56.72C72.0728 56.5067 71.9661 56.2053 71.9661 55.816V51.872H72.5341V55.784C72.5341 56.0293 72.5955 56.2187 72.7181 56.352C72.8461 56.4853 73.0275 56.552 73.2621 56.552C73.5128 56.552 73.7208 56.48 73.8861 56.336L74.0861 56.744C73.9741 56.8453 73.8381 56.92 73.6781 56.968C73.5235 57.016 73.3635 57.04 73.1981 57.04ZM71.2141 53.272V52.8H73.8141V53.272H71.2141ZM74.8543 58.168L75.2063 56.688L75.2703 57.032C75.1476 57.032 75.0436 56.992 74.9583 56.912C74.8783 56.832 74.8383 56.728 74.8383 56.6C74.8383 56.472 74.8783 56.368 74.9583 56.288C75.0436 56.208 75.1449 56.168 75.2623 56.168C75.3849 56.168 75.4836 56.2107 75.5583 56.296C75.6383 56.3813 75.6783 56.4827 75.6783 56.6C75.6783 56.6427 75.6756 56.6853 75.6703 56.728C75.6649 56.7707 75.6543 56.8187 75.6383 56.872C75.6223 56.9253 75.6009 56.9893 75.5743 57.064L75.2383 58.168H74.8543ZM80.1953 57V51.912H78.2273V51.4H82.7553V51.912H80.7873V57H80.1953ZM83.3396 58.592C83.1423 58.592 82.953 58.56 82.7716 58.496C82.5956 58.432 82.4436 58.336 82.3156 58.208L82.5796 57.784C82.6863 57.8853 82.801 57.9627 82.9236 58.016C83.0516 58.0747 83.193 58.104 83.3476 58.104C83.5343 58.104 83.6943 58.0507 83.8276 57.944C83.9663 57.8427 84.097 57.6613 84.2196 57.4L84.4916 56.784L84.5556 56.696L86.2836 52.8H86.8436L84.7396 57.504C84.6223 57.776 84.4916 57.992 84.3476 58.152C84.209 58.312 84.057 58.424 83.8916 58.488C83.7263 58.5573 83.5423 58.592 83.3396 58.592ZM84.4596 57.12L82.5236 52.8H83.1156L84.8276 56.656L84.4596 57.12ZM89.8116 57.04C89.4489 57.04 89.1209 56.9573 88.8276 56.792C88.5342 56.6213 88.2996 56.3787 88.1236 56.064C87.9529 55.744 87.8676 55.3547 87.8676 54.896C87.8676 54.4373 87.9529 54.0507 88.1236 53.736C88.2942 53.416 88.5262 53.1733 88.8196 53.008C89.1129 52.8427 89.4436 52.76 89.8116 52.76C90.2116 52.76 90.5689 52.8507 90.8836 53.032C91.2036 53.208 91.4542 53.4587 91.6356 53.784C91.8169 54.104 91.9076 54.4747 91.9076 54.896C91.9076 55.3227 91.8169 55.696 91.6356 56.016C91.4542 56.336 91.2036 56.5867 90.8836 56.768C90.5689 56.9493 90.2116 57.04 89.8116 57.04ZM87.6436 58.552V52.8H88.1876V54.064L88.1316 54.904L88.2116 55.752V58.552H87.6436ZM89.7716 56.536C90.0702 56.536 90.3369 56.4693 90.5716 56.336C90.8062 56.1973 90.9929 56.0053 91.1316 55.76C91.2702 55.5093 91.3396 55.2213 91.3396 54.896C91.3396 54.5707 91.2702 54.2853 91.1316 54.04C90.9929 53.7947 90.8062 53.6027 90.5716 53.464C90.3369 53.3253 90.0702 53.256 89.7716 53.256C89.4729 53.256 89.2036 53.3253 88.9636 53.464C88.7289 53.6027 88.5422 53.7947 88.4036 54.04C88.2702 54.2853 88.2036 54.5707 88.2036 54.896C88.2036 55.2213 88.2702 55.5093 88.4036 55.76C88.5422 56.0053 88.7289 56.1973 88.9636 56.336C89.2036 56.4693 89.4729 56.536 89.7716 56.536ZM94.8494 57.04C94.4121 57.04 94.0281 56.9493 93.6974 56.768C93.3668 56.5813 93.1081 56.328 92.9214 56.008C92.7348 55.6827 92.6414 55.312 92.6414 54.896C92.6414 54.48 92.7294 54.112 92.9054 53.792C93.0868 53.472 93.3321 53.2213 93.6414 53.04C93.9561 52.8533 94.3081 52.76 94.6974 52.76C95.0921 52.76 95.4414 52.8507 95.7454 53.032C96.0548 53.208 96.2974 53.4587 96.4734 53.784C96.6494 54.104 96.7374 54.4747 96.7374 54.896C96.7374 54.9227 96.7348 54.952 96.7294 54.984C96.7294 55.0107 96.7294 55.04 96.7294 55.072H93.0734V54.648H96.4254L96.2014 54.816C96.2014 54.512 96.1348 54.2427 96.0014 54.008C95.8734 53.768 95.6974 53.5813 95.4734 53.448C95.2494 53.3147 94.9908 53.248 94.6974 53.248C94.4094 53.248 94.1508 53.3147 93.9214 53.448C93.6921 53.5813 93.5134 53.768 93.3854 54.008C93.2574 54.248 93.1934 54.5227 93.1934 54.832V54.92C93.1934 55.24 93.2628 55.5227 93.4014 55.768C93.5454 56.008 93.7428 56.1973 93.9934 56.336C94.2494 56.4693 94.5401 56.536 94.8654 56.536C95.1214 56.536 95.3588 56.4907 95.5774 56.4C95.8014 56.3093 95.9934 56.1707 96.1534 55.984L96.4734 56.352C96.2868 56.576 96.0521 56.7467 95.7694 56.864C95.4921 56.9813 95.1854 57.04 94.8494 57.04ZM99.5576 57.048C99.1416 57.048 98.7416 56.9813 98.3576 56.848C97.9789 56.7093 97.6856 56.5333 97.4776 56.32L97.7096 55.864C97.9069 56.056 98.1709 56.2187 98.5016 56.352C98.8376 56.48 99.1896 56.544 99.5576 56.544C99.9096 56.544 100.195 56.5013 100.414 56.416C100.638 56.3253 100.8 56.2053 100.902 56.056C101.008 55.9067 101.062 55.7413 101.062 55.56C101.062 55.3413 100.998 55.1653 100.87 55.032C100.747 54.8987 100.584 54.7947 100.382 54.72C100.179 54.64 99.9549 54.5707 99.7096 54.512C99.4642 54.4533 99.2189 54.392 98.9736 54.328C98.7282 54.2587 98.5016 54.168 98.2936 54.056C98.0909 53.944 97.9256 53.7973 97.7976 53.616C97.6749 53.4293 97.6136 53.1867 97.6136 52.888C97.6136 52.6107 97.6856 52.3573 97.8296 52.128C97.9789 51.8933 98.2056 51.7067 98.5096 51.568C98.8136 51.424 99.2029 51.352 99.6776 51.352C99.9922 51.352 100.304 51.3973 100.614 51.488C100.923 51.5733 101.19 51.6933 101.414 51.848L101.214 52.32C100.974 52.16 100.718 52.0427 100.446 51.968C100.179 51.8933 99.9202 51.856 99.6696 51.856C99.3336 51.856 99.0562 51.9013 98.8376 51.992C98.6189 52.0827 98.4562 52.2053 98.3496 52.36C98.2482 52.5093 98.1976 52.68 98.1976 52.872C98.1976 53.0907 98.2589 53.2667 98.3816 53.4C98.5096 53.5333 98.6749 53.6373 98.8776 53.712C99.0856 53.7867 99.3122 53.8533 99.5576 53.912C99.8029 53.9707 100.046 54.0347 100.286 54.104C100.531 54.1733 100.755 54.264 100.958 54.376C101.166 54.4827 101.331 54.6267 101.454 54.808C101.582 54.9893 101.646 55.2267 101.646 55.52C101.646 55.792 101.571 56.0453 101.422 56.28C101.272 56.5093 101.043 56.696 100.734 56.84C100.43 56.9787 100.038 57.048 99.5576 57.048ZM104.559 57.04C104.143 57.04 103.77 56.9493 103.439 56.768C103.114 56.5813 102.858 56.328 102.671 56.008C102.485 55.6827 102.391 55.312 102.391 54.896C102.391 54.4747 102.485 54.104 102.671 53.784C102.858 53.464 103.114 53.2133 103.439 53.032C103.77 52.8507 104.143 52.76 104.559 52.76C104.917 52.76 105.239 52.8293 105.527 52.968C105.815 53.1067 106.042 53.3147 106.207 53.592L105.783 53.88C105.639 53.6667 105.461 53.5093 105.247 53.408C105.034 53.3067 104.802 53.256 104.551 53.256C104.253 53.256 103.983 53.3253 103.743 53.464C103.503 53.5973 103.314 53.7867 103.175 54.032C103.037 54.2773 102.967 54.5653 102.967 54.896C102.967 55.2267 103.037 55.5147 103.175 55.76C103.314 56.0053 103.503 56.1973 103.743 56.336C103.983 56.4693 104.253 56.536 104.551 56.536C104.802 56.536 105.034 56.4853 105.247 56.384C105.461 56.2827 105.639 56.128 105.783 55.92L106.207 56.208C106.042 56.48 105.815 56.688 105.527 56.832C105.239 56.9707 104.917 57.04 104.559 57.04ZM107.323 57V52.8H107.867V53.944L107.811 53.744C107.929 53.424 108.126 53.1813 108.403 53.016C108.681 52.8453 109.025 52.76 109.435 52.76V53.312C109.414 53.312 109.393 53.312 109.371 53.312C109.35 53.3067 109.329 53.304 109.307 53.304C108.865 53.304 108.518 53.44 108.267 53.712C108.017 53.9787 107.891 54.36 107.891 54.856V57H107.323ZM110.472 57V52.8H111.04V57H110.472ZM110.76 51.872C110.642 51.872 110.544 51.832 110.464 51.752C110.384 51.672 110.344 51.576 110.344 51.464C110.344 51.352 110.384 51.2587 110.464 51.184C110.544 51.104 110.642 51.064 110.76 51.064C110.877 51.064 110.976 51.1013 111.056 51.176C111.136 51.2507 111.176 51.344 111.176 51.456C111.176 51.5733 111.136 51.672 111.056 51.752C110.981 51.832 110.882 51.872 110.76 51.872ZM114.788 57.04C114.425 57.04 114.097 56.9573 113.804 56.792C113.511 56.6213 113.276 56.3787 113.1 56.064C112.929 55.744 112.844 55.3547 112.844 54.896C112.844 54.4373 112.929 54.0507 113.1 53.736C113.271 53.416 113.503 53.1733 113.796 53.008C114.089 52.8427 114.42 52.76 114.788 52.76C115.188 52.76 115.545 52.8507 115.86 53.032C116.18 53.208 116.431 53.4587 116.612 53.784C116.793 54.104 116.884 54.4747 116.884 54.896C116.884 55.3227 116.793 55.696 116.612 56.016C116.431 56.336 116.18 56.5867 115.86 56.768C115.545 56.9493 115.188 57.04 114.788 57.04ZM112.62 58.552V52.8H113.164V54.064L113.108 54.904L113.188 55.752V58.552H112.62ZM114.748 56.536C115.047 56.536 115.313 56.4693 115.548 56.336C115.783 56.1973 115.969 56.0053 116.108 55.76C116.247 55.5093 116.316 55.2213 116.316 54.896C116.316 54.5707 116.247 54.2853 116.108 54.04C115.969 53.7947 115.783 53.6027 115.548 53.464C115.313 53.3253 115.047 53.256 114.748 53.256C114.449 53.256 114.18 53.3253 113.94 53.464C113.705 53.6027 113.519 53.7947 113.38 54.04C113.247 54.2853 113.18 54.5707 113.18 54.896C113.18 55.2213 113.247 55.5093 113.38 55.76C113.519 56.0053 113.705 56.1973 113.94 56.336C114.18 56.4693 114.449 56.536 114.748 56.536ZM119.37 57.04C118.975 57.04 118.671 56.9333 118.458 56.72C118.245 56.5067 118.138 56.2053 118.138 55.816V51.872H118.706V55.784C118.706 56.0293 118.767 56.2187 118.89 56.352C119.018 56.4853 119.199 56.552 119.434 56.552C119.685 56.552 119.893 56.48 120.058 56.336L120.258 56.744C120.146 56.8453 120.01 56.92 119.85 56.968C119.695 57.016 119.535 57.04 119.37 57.04ZM117.386 53.272V52.8H119.986V53.272H117.386Z" fill="#CBC3C3"/>
</svg>
