<svg width="190" height="168" viewBox="0 0 190 168" fill="none" xmlns="http://www.w3.org/2000/svg">
<g opacity="0.78">
<path d="M50.56 127.128H38.656L24.576 104.408L21.568 102.232L22.528 100.312H26.112C29.0133 100.312 31.296 99.5867 32.96 98.136C34.6667 96.6427 35.52 94.616 35.52 92.056C35.52 88.6853 34.5813 85.8907 32.704 83.672C30.8267 81.4107 28.096 80.28 24.512 80.28C22.1227 80.28 19.9253 80.984 17.92 82.392V122.264L24.64 124.568L23.36 127.128H3.904V125.144L9.92 120.408V81.496L3.264 79.32L4.544 76.76H11.968C15.8507 76.76 19.6693 76.632 23.424 76.376C26.1547 76.2053 28.1813 76.12 29.504 76.12C32.3627 76.12 34.9013 76.696 37.12 77.848C39.3813 79 41.1093 80.5573 42.304 82.52C43.5413 84.4827 44.16 86.6373 44.16 88.984C44.16 91.1173 43.4987 93.1653 42.176 95.128C40.8533 97.048 39.104 98.7333 36.928 100.184C34.7947 101.592 32.5333 102.659 30.144 103.384L34.304 104.792L44.224 120.792L51.84 124.568L50.56 127.128ZM124.566 115.672C124.566 114.349 124.032 113.112 122.966 111.96C121.899 110.808 120.555 109.763 118.934 108.824C117.355 107.843 115.2 106.648 112.47 105.24C109.227 103.533 106.624 102.083 104.662 100.888C102.699 99.6507 101.014 98.2 99.6055 96.536C98.2402 94.872 97.5575 93.0373 97.5575 91.032C97.5575 88.8987 98.4535 86.616 100.246 84.184C102.038 81.7093 104.214 79.64 106.774 77.976C109.376 76.2693 111.766 75.416 113.942 75.416C116.587 75.416 119.659 75.736 123.158 76.376C126.656 77.016 129.216 77.6987 130.838 78.424V90.84H128.406C126.315 87.384 124.011 84.696 121.494 82.776C119.019 80.856 116.416 79.896 113.686 79.896C111.254 79.896 109.312 80.664 107.862 82.2C106.454 83.6933 105.75 85.656 105.75 88.088C105.75 89.496 106.283 90.8187 107.35 92.056C108.459 93.2507 109.803 94.3173 111.382 95.256C113.003 96.1947 115.243 97.4107 118.102 98.904C121.259 100.483 123.819 101.891 125.782 103.128C127.744 104.323 129.387 105.731 130.71 107.352C132.075 108.931 132.758 110.723 132.758 112.728C132.758 114.861 131.798 117.165 129.878 119.64C127.958 122.072 125.611 124.141 122.838 125.848C120.107 127.512 117.611 128.344 115.35 128.344C112.576 128.344 109.27 128.024 105.43 127.384C101.632 126.744 98.9015 126.061 97.2375 125.336V112.92H99.6695C101.846 116.376 104.32 119.064 107.094 120.984C109.867 122.904 112.726 123.864 115.67 123.864C117.419 123.864 118.976 123.48 120.342 122.712C121.707 121.944 122.752 120.941 123.478 119.704C124.203 118.424 124.566 117.08 124.566 115.672ZM179.49 127H141.09V125.016L147.106 120.28V81.496L140.45 79.256L141.73 76.696H178.85L182.306 75.544V90.264L180.386 90.904L172.77 79.576H155.106V99.864H165.154L169.826 91.672H171.81V111.128L169.25 112.408L165.218 102.744H155.106V124.12H172.514L181.026 111.512L182.946 112.152V128.152L179.49 127Z" fill="white"/>
<path d="M78.534 117.496C78.534 120.056 78.598 122.424 78.726 124.6C78.918 126.712 79.142 128.152 79.398 128.92L60.966 152.344L57.318 149.464C60.966 144.856 63.398 140.952 64.614 137.752C65.894 134.552 66.534 130.616 66.534 125.944V59.128L54.63 55.384L56.55 51.544H87.654V54.52L78.534 61.624V117.496Z" fill="#03FF41"/>
<path d="M9.276 71L6.444 62.6H7.356L10.008 70.508H9.552L12.288 62.6H13.104L15.804 70.508H15.372L18.048 62.6H18.9L16.068 71H15.132L12.552 63.5H12.792L10.2 71H9.276ZM21.3202 66.356H25.7602V67.112H21.3202V66.356ZM21.4162 70.232H26.4682V71H20.5282V62.6H26.2882V63.368H21.4162V70.232ZM28.5555 71V62.6H32.1795C33.1155 62.6 33.8395 62.788 34.3515 63.164C34.8715 63.54 35.1315 64.072 35.1315 64.76C35.1315 65.216 35.0235 65.6 34.8075 65.912C34.5995 66.224 34.3115 66.46 33.9435 66.62C33.5835 66.78 33.1875 66.86 32.7555 66.86L32.9595 66.572C33.4955 66.572 33.9555 66.656 34.3395 66.824C34.7315 66.984 35.0355 67.228 35.2515 67.556C35.4675 67.876 35.5755 68.276 35.5755 68.756C35.5755 69.468 35.3115 70.02 34.7835 70.412C34.2635 70.804 33.4755 71 32.4195 71H28.5555ZM29.4435 70.268H32.4075C33.1435 70.268 33.7075 70.144 34.0995 69.896C34.4915 69.64 34.6875 69.236 34.6875 68.684C34.6875 68.14 34.4915 67.744 34.0995 67.496C33.7075 67.24 33.1435 67.112 32.4075 67.112H29.3475V66.38H32.1195C32.7915 66.38 33.3115 66.252 33.6795 65.996C34.0555 65.74 34.2435 65.36 34.2435 64.856C34.2435 64.344 34.0555 63.964 33.6795 63.716C33.3115 63.46 32.7915 63.332 32.1195 63.332H29.4435V70.268Z" fill="#4FC93C"/>
<path d="M103.368 145V136.6H106.788C107.684 136.6 108.468 136.78 109.14 137.14C109.82 137.492 110.348 137.984 110.724 138.616C111.1 139.248 111.288 139.976 111.288 140.8C111.288 141.624 111.1 142.352 110.724 142.984C110.348 143.616 109.82 144.112 109.14 144.472C108.468 144.824 107.684 145 106.788 145H103.368ZM104.256 144.232H106.74C107.484 144.232 108.128 144.088 108.672 143.8C109.224 143.504 109.652 143.1 109.956 142.588C110.26 142.068 110.412 141.472 110.412 140.8C110.412 140.12 110.26 139.524 109.956 139.012C109.652 138.5 109.224 138.1 108.672 137.812C108.128 137.516 107.484 137.368 106.74 137.368H104.256V144.232ZM114.074 140.356H118.514V141.112H114.074V140.356ZM114.17 144.232H119.222V145H113.282V136.6H119.042V137.368H114.17V144.232ZM123.58 145L119.86 136.6H120.82L124.3 144.508H123.772L127.276 136.6H128.176L124.456 145H123.58ZM130.187 140.356H134.627V141.112H130.187V140.356ZM130.283 144.232H135.335V145H129.395V136.6H135.155V137.368H130.283V144.232ZM137.423 145V136.6H138.311V144.232H143.015V145H137.423ZM147.997 145.072C147.365 145.072 146.777 144.968 146.233 144.76C145.697 144.544 145.229 144.244 144.829 143.86C144.437 143.468 144.129 143.016 143.905 142.504C143.689 141.984 143.581 141.416 143.581 140.8C143.581 140.184 143.689 139.62 143.905 139.108C144.129 138.588 144.437 138.136 144.829 137.752C145.229 137.36 145.697 137.06 146.233 136.852C146.769 136.636 147.357 136.528 147.997 136.528C148.629 136.528 149.213 136.636 149.749 136.852C150.285 137.06 150.749 137.356 151.141 137.74C151.541 138.124 151.849 138.576 152.065 139.096C152.289 139.616 152.401 140.184 152.401 140.8C152.401 141.416 152.289 141.984 152.065 142.504C151.849 143.024 151.541 143.476 151.141 143.86C150.749 144.244 150.285 144.544 149.749 144.76C149.213 144.968 148.629 145.072 147.997 145.072ZM147.997 144.28C148.501 144.28 148.965 144.196 149.389 144.028C149.821 143.852 150.193 143.608 150.505 143.296C150.825 142.976 151.073 142.608 151.249 142.192C151.425 141.768 151.513 141.304 151.513 140.8C151.513 140.296 151.425 139.836 151.249 139.42C151.073 138.996 150.825 138.628 150.505 138.316C150.193 137.996 149.821 137.752 149.389 137.584C148.965 137.408 148.501 137.32 147.997 137.32C147.493 137.32 147.025 137.408 146.593 137.584C146.161 137.752 145.785 137.996 145.465 138.316C145.153 138.628 144.905 138.996 144.721 139.42C144.545 139.836 144.457 140.296 144.457 140.8C144.457 141.296 144.545 141.756 144.721 142.18C144.905 142.604 145.153 142.976 145.465 143.296C145.785 143.608 146.161 143.852 146.593 144.028C147.025 144.196 147.493 144.28 147.997 144.28ZM154.391 145V136.6H157.535C158.247 136.6 158.859 136.716 159.371 136.948C159.883 137.172 160.275 137.5 160.547 137.932C160.827 138.356 160.967 138.872 160.967 139.48C160.967 140.072 160.827 140.584 160.547 141.016C160.275 141.44 159.883 141.768 159.371 142C158.859 142.232 158.247 142.348 157.535 142.348H154.883L155.279 141.928V145H154.391ZM155.279 142L154.883 141.568H157.511C158.351 141.568 158.987 141.388 159.419 141.028C159.859 140.66 160.079 140.144 160.079 139.48C160.079 138.808 159.859 138.288 159.419 137.92C158.987 137.552 158.351 137.368 157.511 137.368H154.883L155.279 136.948V142ZM163.68 140.356H168.12V141.112H163.68V140.356ZM163.776 144.232H168.828V145H162.888V136.6H168.648V137.368H163.776V144.232ZM170.915 145V136.6H174.059C174.771 136.6 175.383 136.716 175.895 136.948C176.407 137.172 176.799 137.5 177.071 137.932C177.351 138.356 177.491 138.872 177.491 139.48C177.491 140.072 177.351 140.584 177.071 141.016C176.799 141.44 176.407 141.768 175.895 142C175.383 142.224 174.771 142.336 174.059 142.336H171.407L171.803 141.928V145H170.915ZM176.651 145L174.491 141.952H175.451L177.623 145H176.651ZM171.803 142L171.407 141.58H174.035C174.875 141.58 175.511 141.396 175.943 141.028C176.383 140.66 176.603 140.144 176.603 139.48C176.603 138.808 176.383 138.288 175.943 137.92C175.511 137.552 174.875 137.368 174.035 137.368H171.407L171.803 136.948V142Z" fill="#45F927"/>
</g>
</svg>
