<svg width="116" height="47" viewBox="0 0 116 47" fill="none" xmlns="http://www.w3.org/2000/svg">
<path d="M2.112 46V39.28L19.392 22.96C20.7573 21.7227 21.76 20.6133 22.4 19.632C23.04 18.6507 23.4667 17.7547 23.68 16.944C23.936 16.1333 24.064 15.3867 24.064 14.704C24.064 12.912 23.4453 11.5467 22.208 10.608C21.0133 9.62666 19.2427 9.136 16.896 9.136C15.0187 9.136 13.2693 9.49866 11.648 10.224C10.0693 10.9493 8.72533 12.08 7.616 13.616L0.064 8.752C1.77067 6.192 4.16 4.16533 7.232 2.672C10.304 1.17867 13.8453 0.431999 17.856 0.431999C21.184 0.431999 24.0853 0.986665 26.56 2.096C29.0773 3.16267 31.0187 4.67733 32.384 6.64C33.792 8.60267 34.496 10.9493 34.496 13.68C34.496 15.1307 34.304 16.5813 33.92 18.032C33.5787 19.44 32.8533 20.9333 31.744 22.512C30.6773 24.0907 29.0987 25.8613 27.008 27.824L12.672 41.328L10.688 37.552H35.968V46H2.112ZM59.446 46.768C55.7767 46.768 52.4913 45.872 49.59 44.08C46.6887 42.2453 44.406 39.6 42.742 36.144C41.078 32.688 40.246 28.5067 40.246 23.6C40.246 18.6933 41.078 14.512 42.742 11.056C44.406 7.6 46.6887 4.976 49.59 3.184C52.4913 1.34933 55.7767 0.431999 59.446 0.431999C63.158 0.431999 66.4433 1.34933 69.302 3.184C72.2033 4.976 74.486 7.6 76.15 11.056C77.814 14.512 78.646 18.6933 78.646 23.6C78.646 28.5067 77.814 32.688 76.15 36.144C74.486 39.6 72.2033 42.2453 69.302 44.08C66.4433 45.872 63.158 46.768 59.446 46.768ZM59.446 38C61.1953 38 62.71 37.5093 63.99 36.528C65.3127 35.5467 66.3367 33.9893 67.062 31.856C67.83 29.7227 68.214 26.9707 68.214 23.6C68.214 20.2293 67.83 17.4773 67.062 15.344C66.3367 13.2107 65.3127 11.6533 63.99 10.672C62.71 9.69066 61.1953 9.2 59.446 9.2C57.7393 9.2 56.2247 9.69066 54.902 10.672C53.622 11.6533 52.598 13.2107 51.83 15.344C51.1047 17.4773 50.742 20.2293 50.742 23.6C50.742 26.9707 51.1047 29.7227 51.83 31.856C52.598 33.9893 53.622 35.5467 54.902 36.528C56.2247 37.5093 57.7393 38 59.446 38Z" fill="#01BE53"/>
<path d="M96.415 38.384V8.816H104.671V38.384H96.415ZM85.343 27.504V19.696H115.807V27.504H85.343Z" fill="white"/>
</svg>
